<?xml version="1.0" encoding="UTF-8" standalone="no"?>
<svg
   width="420pt"
   height="418.02802pt"
   viewBox="0 0 420 418.02802"
   version="1.1"
   id="svg93"
   sodipodi:docname="icon.svg"
   xml:space="preserve"
   inkscape:version="1.4.2 (ebf0e940d0, 2025-05-08)"
   xmlns:inkscape="http://www.inkscape.org/namespaces/inkscape"
   xmlns:sodipodi="http://sodipodi.sourceforge.net/DTD/sodipodi-0.dtd"
   xmlns="http://www.w3.org/2000/svg"
   xmlns:svg="http://www.w3.org/2000/svg"><defs
     id="defs93" /><sodipodi:namedview
     id="namedview93"
     pagecolor="#505050"
     bordercolor="#ffffff"
     borderopacity="1"
     inkscape:showpageshadow="0"
     inkscape:pageopacity="0"
     inkscape:pagecheckerboard="1"
     inkscape:deskcolor="#505050"
     inkscape:document-units="pt"
     inkscape:zoom="0.98139574"
     inkscape:cx="299.57334"
     inkscape:cy="268.49515"
     inkscape:window-width="1920"
     inkscape:window-height="1052"
     inkscape:window-x="0"
     inkscape:window-y="0"
     inkscape:window-maximized="1"
     inkscape:current-layer="svg93" /><g
     id="#9e879fff"
     transform="translate(0,-0.98577329)"><path
       fill="#9e879f"
       opacity="1"
       d="m 21.71,343.29 c 0.66,-5.83 -0.66,-12.13 2.02,-17.53 l 0.96,0.01 c -0.79,4.14 -0.74,8.33 -0.43,12.52 -0.25,6.42 1.18,12.71 2.52,18.95 2.32,7.43 6.64,14.47 11.9,20.15 12.48,13.85 31.91,19.93 50.11,19.46 14.33,0.19 28.65,0.3 42.97,-0.04 48.5,0.28 97.01,0.4 145.51,-0.08 11.65,0.68 23.62658,-0.0866 35.28658,-0.27658 14.82,0.81 29.48342,1.38658 43.68342,-3.28342 5.96,-0.6 10.66,-4.52 15.75,-7.25 -0.18,0.6 -0.53,1.8 -0.71,2.4 -4.64,2.94 -9.71,5.39 -14.98,6.95 0.0603,0.22185 -8.35549,5.47949 -14.73549,4.45949 -64.13558,1.34738 -176.23582,0.22658 -262.91582,0.32658 -4.97,0.12 -5.886547,-0.62971 -13.676836,-2.87 C 41.271854,391.55607 24.29,366.72 21.71,343.29 Z"
       id="path90"
       sodipodi:nodetypes="cccccccccccccccccc" /></g><g
     id="#65446eff"
     transform="translate(0,-0.98577329)" /><g
     id="#907793ff"
     transform="translate(0,-0.98577329)" /><g
     id="#65466eff"
     transform="translate(0,-0.98577329)" /><g
     id="#cbc4ccff"
     transform="translate(0,-0.98577329)"><path
       fill="#cbc4cc"
       opacity="1"
       d="M 0,65.46 C 6.77,33.38 34.09,5.48 67.03,1.07 162.91,0.93 258.8,1 354.68,1.03 c 26.25,5.31 48.82,24.46 59.6,48.72 -0.19,1.84 -0.43,3.69 -0.62,5.54 C 403.74,25.12 373.94,2.31 342.01,1.97 253.68,2.01 165.34,2.05 77.01,1.94 39.92,2.08 5.65,32.91 1.84,69.87 -0.89,114.94 3.04,160.68 0,205.58 Z"
       id="path1" /></g><g
     id="#917f95ff"
     transform="translate(0,-0.98577329)"><path
       fill="#917f95"
       opacity="1"
       d="m 354.68,1.03 c 31.58,1.63 55.9,29.56 65.32,57.55 V 69.53 C 417.65,63.07 416.76,56.16 414.28,49.75 403.5,25.49 380.93,6.34 354.68,1.03 Z"
       id="path2" /></g><g
     id="#f2f1f3ff"
     transform="translate(0,-0.98577329)"><path
       fill="#f2f1f3"
       opacity="1"
       d="M 1.84,69.87 C 5.65,32.91 39.92,2.08 77.01,1.94 c 88.33,0.11 176.67,0.07 265,0.03 31.93,0.34 61.73,23.15 71.65,53.32 0.93,4.57 3.38,8.71 3.7,13.43 -0.21,2.17 -0.44,4.34 -0.59,6.52 C 411.64,58.84 408.51,40.27 394.28,28.72 379.23,9.82 354.06,3.79 331.02,3 247.02,3.06 163.02,2.88 79.03,3.08 63.37,5.89 46.83,8.54 34.23,19.22 21.52,28.57 12.54,41.87 6.46,56.25 -2.9,106.28 4.79,157.61 1.35,208.16 1.03,212.5 3.02,216.97 1.07,221.13 L 0,221.06 V 205.58 C 3.04,160.68 -0.89,114.94 1.84,69.87 Z"
       id="path3" /><path
       fill="#f2f1f3"
       opacity="1"
       d="m 1.28,302.76 c 1.43,24.19 -1.43,50.25 10.81,72.16 8.58,17.52 25.08,29.55 42.57,37.23 10.91,0.76 21.2,5.61 32.33,4.84 80.01,0.02 160.02,0.01 240.03,0 16.78,-0.57 34.02,-2.9 49.01,-10.95 7.31,-2.06 11.54,-11.23 18.39,-12.2 -11.91,14.69 -30.47,20.89 -48.38,24.18 C 256.01,417.98 165.99,418 75.97,418.01 43.67,416.71 13.55,393.4 4.38,362.48 -1.65,343.17 1.71,322.64 1.28,302.76 Z"
       id="path4" /></g><g
     id="#fefdfeff"
     transform="translate(0,-0.98577329)"><path
       fill="#fefdfe"
       opacity="1"
       d="M 34.23,19.22 C 46.83,8.54 63.37,5.89 79.03,3.08 163.02,2.88 247.02,3.06 331.02,3 c 23.04,0.79 48.21,6.82 63.26,25.72 14.23,11.55 17.36,30.12 22.49,46.52 0.48,56.04 0.01,112.19 1.15,168.06 -0.04,0.62 -0.11,1.85 -0.15,2.47 -1.76,31.68 -0.33,63.5 -0.71,95.24 1.06,7.32 -3.1,13.88 -2.98,21.13 l -0.23,0.75 c -3.46,11.91 -10.78,22.22 -19.43,30.95 -6.85,0.97 -11.08,10.14 -18.39,12.2 -14.99,8.05 -32.23,10.38 -49.01,10.95 -80.01,0.01 -160.02,0.02 -240.03,0 -11.13,0.77 -21.42,-4.08 -32.33,-4.84 C 37.17,404.47 20.67,392.44 12.09,374.92 -0.15,353.01 2.71,326.95 1.28,302.76 0.73,298.35 1.87,293.6 0,289.43 v -7.98 C 2.28,261.46 0.33,241.22 1.07,221.13 3.02,216.97 1.03,212.5 1.35,208.16 4.79,157.61 -2.9,106.28 6.46,56.25 12.54,41.87 21.52,28.57 34.23,19.22 m 39.78,-0.21 v 0.96 C 55.82,21.85 38.6,32.18 29.15,48 c -6.79,5.59 -7.73,16.03 -10.04,24.06 -0.25,45.97 -0.07,91.96 -0.09,137.93 l -0.95,0.02 c 1.64,41.67 -0.76,83.36 0.91,124.96 -5.55,33.51 25.03,66.54 58.4,66.6 68.18,1.01 136.42,0.14 204.62,0.43 23.54,-0.38 47.16,1.08 70.62,-1.42 14.47,-4.33 28.48,-12.17 36.67,-25.32 1.33,-2.68 8.13,-7.87 4.62,-10.46 2.19,-6.02 4.34,-12.35 5.09,-18.77 l 0.97,-0.06 c 0.05,-30.32 0.05,-60.65 0,-90.97 H 399 c 0.02,-6.33 0,-12.67 -0.01,-18.99 0.26,-0.5 0.77,-1.5 1.03,-2 -0.46,-54.98 0.32,-109.98 -0.1,-164.97 -3.2,-9.35 -5.49,-21.33 -14.27,-26.77 C 375.4,29.81 360.3,20.86 344.01,19.99 l -0.02,-0.97 C 253.99,18.98 164,19 74.01,19.01 Z"
       id="path5" /><path
       fill="#fefdfe"
       opacity="1"
       d="m 212.23,92.19 c 1.51,-0.04 3.03,-0.05 4.55,-0.02 12.97,0.48 25.72,2.77 38.48,4.67 19.19,5.41 37.5,14.9 51.55,29.22 5.17,6.38 9.97,13.03 14.24,20.05 0.55,1.1 1.07,2.22 1.61,3.33 3.04,5.99 5.21,12.33 6.95,18.8 1.14,4.25 2.46,8.46 3.47,12.75 1.12,11.93 1.14,23.94 0.81,35.91 -0.5,7.2 -1.89,14.24 -3.81,21.19 -3.94,14.61 -10.66,28.39 -19.19,40.87 -15.78,19.7 -37.28,34.65 -61.77,41.13 -11.39,1.95 -22.88,3.57 -34.41,4.65 -1.83,0.12 -3.66,0.14 -5.48,0.09 -12.33,-0.19 -24.31,-3 -36.42,-4.78 -13.79,-4.29 -27.56,-9.98 -38.69,-19.39 -0.67,-0.66 -1.35,-1.29 -2.05,-1.92 -1.61,-1.46 -3.38,-2.73 -5.07,-4.09 -5.83,-6.14 -11.88,-12.22 -15.85,-19.8 -0.77,-1.19 -1.72,-2.23 -2.67,-3.27 -2.12,-3.91 -4.1,-7.88 -6.14,-11.82 -0.35,-1.04 -0.72,-2.08 -1.1,-3.1 -0.36,-0.95 -0.74,-1.9 -1.13,-2.83 -3.63,-7.93 -4.86,-16.63 -6.81,-25.05 -0.3,-2.01 -0.63,-4.02 -1.06,-6.01 -2.04,-11.03 0.45,-22 0.52,-33.05 1.69,-12.05 6.28,-23.31 10.47,-34.63 14.38,-28.34 40.65,-50.33 71.53,-58.26 12.44,-1.71 24.8,-4.43 37.47,-4.64 M 150,133.89 c -4.97,4.05 -7.52,10.91 -9.08,16.97 -6.86,14.33 -8.09,31.64 -7.58,47.44 -0.41,5.6 -1.45,13.71 0.63,17.71 0.34,4.37 0.89,8.78 1.91,13.04 1.73,12.65 6.89,24.9 13.01,36.01 7.37,14.78 20.16,28.05 35.17,34.98 26.38,15.47 65,13.96 85.8,-10 6.23,-5.71 10.4,-13.95 13.24,-21.9 2.68,-1.83 2.17,-5.61 3.65,-8.27 11.36,-41.87 8.01,-91.69 -20.69,-125.96 -3.89,-4.64 -8.35,-9.62 -13.95,-12.06 -3.38,-3.86 -8.4,-6.4 -13.24,-7.81 C 210.15,99.85 167.8,104.98 150,133.89 Z"
       id="path6" /></g><g
     id="#e5dfe5ff"
     transform="translate(0,-0.98577329)"><path
       fill="#e5dfe5"
       opacity="1"
       d="M 74.01,19.01 C 164,19 253.99,18.98 343.99,19.02 l 0.02,0.97 c -90,0 -180,0.05 -270,-0.02 z"
       id="path7" /></g><g
     id="#cdc3ceff"
     transform="translate(0,-0.98577329)"><path
       fill="#cdc3ce"
       opacity="1"
       d="M 29.15,48 C 38.6,32.18 55.82,21.85 74.01,19.97 c 90,0.07 180,0.02 270,0.02 16.29,0.87 31.39,9.82 41.64,22.28 9.07,12.6 14.5,28.11 13.4,43.73 -0.58,35.1 0.93,70.28 -0.78,105.33 -0.21,-0.33 -0.62,-1.01 -0.83,-1.34 -0.03,-0.41 -0.1,-1.24 -0.14,-1.65 1.07,-17.15 1.25,-34.48 -0.01,-51.61 -0.09,-1.5 -0.15,-3.01 -0.14,-4.51 l 0.08,-0.95 c 0.08,-26.32 5.51,-55.02 -7.11,-79.32 C 379.62,32.42 357.74,21.09 336.02,20.97 251.01,21.01 166.01,21.04 81,20.95 53.61,21.23 27.58,41.38 22.89,68.94 L 21.82,68.88 C 22.59,61.35 26.26,54.81 29.15,48 Z"
       id="path8" /></g><g
     id="#a894a9ff"
     transform="translate(0,-0.98577329)"><path
       fill="#a894a9"
       opacity="1"
       d="M 22.89,68.94 C 27.58,41.38 53.61,21.23 81,20.95 c 85.01,0.09 170.01,0.06 255.02,0.02 21.72,0.12 43.6,11.45 54.1,30.98 12.62,24.3 7.19,53 7.11,79.32 l -0.05,-1.06 -0.04,-1.15 c -0.02,-0.48 -0.04,-1.46 -0.06,-1.94 -0.01,-0.79 -0.02,-2.35 -0.03,-3.13 -0.03,-6.76 0.06,-13.52 -0.26,-20.27 -1.25,-11.08 3.79,-23.86 -2.68,-33.82 -1.23,-4.87 -0.17,-10.94 -4.96,-14.17 -5.45,-15.33 -20.86,-27.77 -36.9,-29.95 -11.65,-5.18 -24.56,-4 -37.03,-3.59 -13.67,-0.12 -27.35,-0.53 -41,0.01 -42.81,-0.31 -85.64,-0.35 -128.45,0.01 -13.33,-0.32 -26.67,-0.36 -40,-0.04 -13.1,0.21 -27.01,-2.4 -39.12,3.72 -22.61,2.43 -38.89,24.76 -42.7,46.03 l -1.01,0.12 c -0.01,-0.77 -0.04,-2.32 -0.05,-3.1 z"
       id="path9" /></g><g
     id="#885c87ff"
     transform="translate(0,-0.98577329)"><path
       fill="#885c87"
       opacity="1"
       d="m 66.65,25.89 c 12.11,-6.12 26.02,-3.51 39.12,-3.72 10.94,2.55 22.85,0.01 33.29,4.33 -5.03,2.31 -10.16,4.4 -15.5,5.9 -7.37,0.27 -11.12,7.38 -17.66,9.53 -11.68,4.73 -19.94,13.69 -28.99,22 -5.06,8.85 -16.84,9.45 -20.51,19.54 -5.84,4.44 -8.64,11.41 -12.72,17.18 -9.23,6.9 -6.87,22.49 -17.57,27.54 -0.82,-12.19 -1.8,-24.37 -2.13,-36.58 1.86,1.65 2.73,3.98 3.38,6.31 4.28,-4.52 5.13,-11.67 11.2,-14.37 5.47,-7.44 9.73,-16.32 16.82,-22.35 4.78,-7.53 14.86,-9.51 19.92,-16.92 2.06,-3.88 6.01,-5.58 9.92,-6.92 6.05,-1.67 9.8,-7.31 14.86,-10.65 C 97,23.47 91.61,24.64 87.54,23.52 80.24,20.43 73.62,28.64 66.65,25.89 Z"
       id="path10" /></g><g
     id="#8f618dff"
     transform="translate(0,-0.98577329)"><path
       fill="#8f618d"
       opacity="1"
       d="m 105.77,22.17 c 13.33,-0.32 26.67,-0.28 40,0.04 12.17,0.77 24.26,2.34 36.43,2.99 -1.32,1.27 -2.78,2.41 -4.36,3.33 -7.01,-3.94 -14.34,3.36 -21.8,2.58 -5.04,2.7 -11.23,2.25 -15.67,6.17 -5,5.61 -13.61,5.04 -19.27,9.78 -8.91,4.75 -19.05,8.42 -26.06,15.99 -5.62,7.24 -17.92,8.34 -19.35,18.55 -8.84,0.16 -10.7,9.94 -15.54,15.54 -2.13,1.98 -3.2,4.65 -4.41,7.21 -3.17,-0.86 -2.79,2.61 -3.73,4.67 -10.93,14.93 -18.39,31.71 -24.15,48.92 -6.13,-7 -0.13,-19.59 -3.9,-27.94 -0.31,-12.97 -0.82,-26.32 -0.2,-39.34 l 0.22,0.95 c 0.33,12.21 1.31,24.39 2.13,36.58 10.7,-5.05 8.34,-20.64 17.57,-27.54 4.08,-5.77 6.88,-12.74 12.72,-17.18 3.67,-10.09 15.45,-10.69 20.51,-19.54 9.05,-8.31 17.31,-17.27 28.99,-22 6.54,-2.15 10.29,-9.26 17.66,-9.53 5.34,-1.5 10.47,-3.59 15.5,-5.9 -10.44,-4.32 -22.35,-1.78 -33.29,-4.33 z"
       id="path11" /></g><g
     id="#966592ff"
     transform="translate(0,-0.98577329)"><path
       fill="#966592"
       opacity="1"
       d="m 145.77,22.21 c 42.81,-0.36 85.64,-0.32 128.45,-0.01 -9.66,2.25 -19.78,0.69 -29.37,3.02 2.95,4.33 9.08,1.18 12.89,4.04 6.1,3.51 13.4,2.96 20,4.9 4.02,4.98 11.1,5.03 16.68,7.29 16.3,9.44 33.93,16.99 47.11,30.95 15.94,16 33.23,30.99 44.06,51.23 3.63,2.08 7.99,3.14 11.46,0.36 0.01,0.78 0.02,2.34 0.03,3.13 -6.15,1.07 -12.82,1.76 -18.79,-0.44 C 365.73,112.18 355.48,95.76 339.99,83.99 333.88,75.85 324.43,72.32 316.42,66.6 293.74,51.77 267.09,45.46 241.3,38.43 c -7.8,1.26 -15.76,-3.03 -23.19,0.33 -14,-3.86 -27.65,2.39 -41.77,1.82 -29.26,4.67 -55.8,20.11 -80.31,36.48 -8.29,9.51 -19.09,16.16 -27.53,25.45 -11.86,16.7 -20.63,35.12 -29.43,53.57 -2.16,7.56 -0.53,17.54 -6.71,23.36 0.27,6.2 1.15,12.69 -1.05,18.59 1.34,3.52 -3.94,9.69 -6.08,4.6 -0.87,-11.96 0.67,-24 -0.92,-35.92 -0.98,-12.26 -0.87,-24.44 -0.35,-36.71 3.77,8.35 -2.23,20.94 3.9,27.94 5.76,-17.21 13.22,-33.99 24.15,-48.92 0.94,-2.06 0.56,-5.53 3.73,-4.67 1.21,-2.56 2.28,-5.23 4.41,-7.21 4.84,-5.6 6.7,-15.38 15.54,-15.54 1.43,-10.21 13.73,-11.31 19.35,-18.55 7.01,-7.57 17.15,-11.24 26.06,-15.99 5.66,-4.74 14.27,-4.17 19.27,-9.78 4.44,-3.92 10.63,-3.47 15.67,-6.17 7.46,0.78 14.79,-6.52 21.8,-2.58 1.58,-0.92 3.04,-2.06 4.36,-3.33 -12.17,-0.65 -24.26,-2.22 -36.43,-2.99 z"
       id="path12" /></g><g
     id="#8f608dff"
     transform="translate(0,-0.98577329)"><path
       fill="#8f608d"
       opacity="1"
       d="m 274.22,22.2 c 13.65,-0.54 27.33,-0.13 41,-0.01 -8.44,1.92 -18.12,0.02 -25.54,5.37 11.22,2.31 20.09,11.09 31.1,14.66 4.75,6.81 13.6,7.8 19.7,13.21 0.05,4.1 4.28,4.38 7.12,5.95 1.12,2.92 2.26,5.86 5.81,6.24 2.46,6.25 8.66,9.25 13.13,13.83 4.27,3.79 6.82,9.15 11.95,12.02 2.18,5.19 4.68,10.3 9.43,13.62 3.02,1.82 2.12,7.92 5.91,7.9 1.68,-3.5 1.43,-7.66 2.96,-11.27 0.32,6.75 0.23,13.51 0.26,20.27 -3.47,2.78 -7.83,1.72 -11.46,-0.36 C 374.76,103.39 357.47,88.4 341.53,72.4 328.35,58.44 310.72,50.89 294.42,41.45 c -5.58,-2.26 -12.66,-2.31 -16.68,-7.29 -6.6,-1.94 -13.9,-1.39 -20,-4.9 -3.81,-2.86 -9.94,0.29 -12.89,-4.04 9.59,-2.33 19.71,-0.77 29.37,-3.02 z"
       id="path13" /></g><g
     id="#875c87ff"
     transform="translate(0,-0.98577329)"><path
       fill="#875c87"
       opacity="1"
       d="m 315.22,22.19 c 12.47,-0.41 25.38,-1.59 37.03,3.59 -10.39,1.23 -21.51,-5.23 -31.37,0.32 4.37,2.71 9.27,6.87 14.76,5.06 1.81,8.19 12.68,10.21 17.05,17.04 5.72,7.83 16.62,10.4 20.9,19.3 7.02,8.06 13.26,16.57 20.21,24.66 5.53,-8.36 -2.75,-15.61 -1.62,-24.2 2.32,-5.17 -3.27,-7.67 -3.03,-12.23 4.79,3.23 3.73,9.3 4.96,14.17 6.47,9.96 1.43,22.74 2.68,33.82 -1.53,3.61 -1.28,7.77 -2.96,11.27 -3.79,0.02 -2.89,-6.08 -5.91,-7.9 -4.75,-3.32 -7.25,-8.43 -9.43,-13.62 -5.13,-2.87 -7.68,-8.23 -11.95,-12.02 -4.47,-4.58 -10.67,-7.58 -13.13,-13.83 -3.55,-0.38 -4.69,-3.32 -5.81,-6.24 -2.84,-1.57 -7.07,-1.85 -7.12,-5.95 -6.1,-5.41 -14.95,-6.4 -19.7,-13.21 -11.01,-3.57 -19.88,-12.35 -31.1,-14.66 7.42,-5.35 17.1,-3.45 25.54,-5.37 z"
       id="path14" /><path
       fill="#875c87"
       opacity="1"
       d="m 43.07,316.06 c 3.59,-2.36 8.06,0.01 8.81,4.06 2.25,4.45 8.04,6.21 9.61,11.29 1.81,5.35 10.84,6.99 6.95,14.08 -3.3,8.86 -5.56,19.68 -2.19,28.41 11.53,0.69 15.34,-18.2 27.04,-15.44 3.13,4.54 9.82,3.67 12.11,9.23 4.58,-0.05 6.61,3.5 8.89,7.03 8.6,0.66 15.99,5.75 23.83,9.07 10.31,1.14 19.86,5.97 30,8.46 -10.22,6.92 -24.79,0.76 -36.36,4.56 -14.32,0.34 -28.64,0.23 -42.97,0.04 7.74,-1.45 15.96,-0.85 23.24,-4.21 -7.7,-9.48 -22.94,-8.77 -28.35,-20.56 -8.77,-0.91 -14.51,10.61 -22.98,7.26 -2.12,-6.9 1.07,-15.12 -2.04,-22.09 -2.2,-7.27 -9.85,-10.18 -11.78,-17.12 -4.26,-0.9 -7.5,-4.01 -10.86,-6.1 -7.06,7.01 -12.19,21.54 -4.24,30.18 3.03,3.97 4.73,8.72 6.9,13.18 -5.26,-5.68 -9.58,-12.72 -11.9,-20.15 0.62,-7.88 -1.15,-16.33 2.66,-23.56 -1.52,-8.53 7.35,-13.91 13.63,-17.62 z"
       id="path15" /></g><g
     id="#7e5781ff"
     transform="translate(0,-0.98577329)"><path
       fill="#7e5781"
       opacity="1"
       d="m 66.65,25.89 c 6.97,2.75 13.59,-5.46 20.89,-2.37 4.07,1.12 9.46,-0.05 12.54,3.19 -5.06,3.34 -8.81,8.98 -14.86,10.65 -3.91,1.34 -7.86,3.04 -9.92,6.92 -5.06,7.41 -15.14,9.39 -19.92,16.92 -7.09,6.03 -11.35,14.91 -16.82,22.35 -6.07,2.7 -6.92,9.85 -11.2,14.37 -0.65,-2.33 -1.52,-4.66 -3.38,-6.31 L 23.76,90.66 C 23.4,84.42 23.75,78.16 23.95,71.92 27.76,50.65 44.04,28.32 66.65,25.89 Z"
       id="path16" /></g><g
     id="#7e5680ff"
     transform="translate(0,-0.98577329)"><path
       fill="#7e5680"
       opacity="1"
       d="m 320.88,26.1 c 9.86,-5.55 20.98,0.91 31.37,-0.32 16.04,2.18 31.45,14.62 36.9,29.95 -0.24,4.56 5.35,7.06 3.03,12.23 -1.13,8.59 7.15,15.84 1.62,24.2 -6.95,-8.09 -13.19,-16.6 -20.21,-24.66 -4.28,-8.9 -15.18,-11.47 -20.9,-19.3 -4.37,-6.83 -15.24,-8.85 -17.05,-17.04 -5.49,1.81 -10.39,-2.35 -14.76,-5.06 z"
       id="path17" /></g><g
     id="#9e6998ff"
     transform="translate(0,-0.98577329)"><path
       fill="#9e6998"
       opacity="1"
       d="m 176.34,40.58 c 14.12,0.57 27.77,-5.68 41.77,-1.82 7.43,-3.36 15.39,0.93 23.19,-0.33 25.79,7.03 52.44,13.34 75.12,28.17 8.01,5.72 17.46,9.25 23.57,17.39 15.49,11.77 25.74,28.19 38.3,42.69 5.97,2.2 12.64,1.51 18.79,0.44 0.02,0.48 0.04,1.46 0.06,1.94 -11.83,-0.23 -29.64,6.62 -35.84,-7.37 -7.29,-9.68 -16.37,-17.56 -24.29,-26.71 C 332.48,88.1 323.7,86.72 318.51,80.5 315.35,76 308.9,76.7 305.12,72.88 299.14,67.55 290.97,66.52 284.07,62.87 272.82,56.33 259.64,55.13 247.3,51.75 c -7.54,-2.61 -15.87,0.48 -23.2,-2.83 -27.74,-3.15 -55.51,4.84 -81.24,13.4 -24.79,14.4 -52.93,28.68 -68.42,54.11 -13.38,13.09 -18.96,31.33 -25.89,48.16 -4.69,13.54 -5.71,28.03 -6.76,42.16 -5.64,0.95 -14.12,4.68 -17.78,-1.87 0.06,-12.72 -0.28,-25.45 0.3,-38.17 1.59,11.92 0.05,23.96 0.92,35.92 2.14,5.09 7.42,-1.08 6.08,-4.6 2.2,-5.9 1.32,-12.39 1.05,-18.59 6.18,-5.82 4.55,-15.8 6.71,-23.36 8.8,-18.45 17.57,-36.87 29.43,-53.57 8.44,-9.29 19.24,-15.94 27.53,-25.45 24.51,-16.37 51.05,-31.81 80.31,-36.48 z"
       id="path18" /></g><g
     id="#efe9eeff"
     transform="translate(0,-0.98577329)"><path
       fill="#efe9ee"
       opacity="1"
       d="m 385.65,42.27 c 8.78,5.44 11.07,17.42 14.27,26.77 0.42,54.99 -0.36,109.99 0.1,164.97 -0.26,0.5 -0.77,1.5 -1.03,2 -0.37,-11.06 0.87,-22.22 -0.74,-33.2 -0.1,-3.83 -0.09,-7.65 0.02,-11.48 1.71,-35.05 0.2,-70.23 0.78,-105.33 1.1,-15.62 -4.33,-31.13 -13.4,-43.73 z"
       id="path19" /></g><g
     id="#e4dfe4ff"
     transform="translate(0,-0.98577329)"><path
       fill="#e4dfe4"
       opacity="1"
       d="M 19.11,72.06 C 21.42,64.03 22.36,53.59 29.15,48 c -2.89,6.81 -6.56,13.35 -7.33,20.88 -0.37,0.96 -0.71,1.94 -1,2.92 -1.92,45.97 -0.26,92.15 -0.83,138.21 l -0.97,-0.02 c 0.02,-45.97 -0.16,-91.96 0.09,-137.93 z"
       id="path20" /></g><g
     id="#a76e9fff"
     transform="translate(0,-0.98577329)"><path
       fill="#a76e9f"
       opacity="1"
       d="m 142.86,62.32 c 25.73,-8.56 53.5,-16.55 81.24,-13.4 7.33,3.31 15.66,0.22 23.2,2.83 12.34,3.38 25.52,4.58 36.77,11.12 6.9,3.65 15.07,4.68 21.05,10.01 3.78,3.82 10.23,3.12 13.39,7.62 5.19,6.22 13.97,7.6 18.5,14.48 7.92,9.15 17,17.03 24.29,26.71 6.2,13.99 24.01,7.14 35.84,7.37 l 0.04,1.15 c -13.58,1.38 -27.27,2.33 -40.93,1.63 -3.14,-2.3 -4.82,-5.77 -5.78,-9.42 -21.16,-21.35 -45.31,-41.64 -74.46,-50.45 -17.49,-8.68 -37.56,-8.48 -56.47,-11.42 -22.19,-1.56 -43.46,3.9 -64.66,10.34 -26.37,12.76 -54.4,26.86 -70.94,51.99 -11.68,10.52 -14.65,27.08 -23.1,39.86 -3.04,10.98 -5.44,22.21 -7.79,33.28 1.41,5.43 0.52,13.43 -5.43,15.69 -7.87,0.34 -16.41,0.88 -23.76,-2.57 0.06,-1.42 0.11,-2.84 0.15,-4.26 3.66,6.55 12.14,2.82 17.78,1.87 1.05,-14.13 2.07,-28.62 6.76,-42.16 6.93,-16.83 12.51,-35.07 25.89,-48.16 C 89.93,91 118.07,76.72 142.86,62.32 Z"
       id="path21" /></g><g
     id="#baacbaff"
     transform="translate(0,-0.98577329)"><path
       fill="#baacba"
       opacity="1"
       d="m 414.28,49.75 c 2.48,6.41 3.37,13.32 5.72,19.78 v 116.94 c -2.75,-37.45 0.5,-75.27 -1.61,-112.76 -0.32,-1.67 -0.67,-3.33 -1.03,-4.99 -0.32,-4.72 -2.77,-8.86 -3.7,-13.43 0.19,-1.85 0.43,-3.7 0.62,-5.54 z"
       id="path22" /></g><g
     id="#b173a6ff"
     transform="translate(0,-0.98577329)"><path
       fill="#b173a6"
       opacity="1"
       d="m 154.88,70.89 c 21.2,-6.44 42.47,-11.9 64.66,-10.34 18.91,2.94 38.98,2.74 56.47,11.42 29.15,8.81 53.3,29.1 74.46,50.45 0.96,3.65 2.64,7.12 5.78,9.42 13.66,0.7 27.35,-0.25 40.93,-1.63 l 0.05,1.06 -0.08,0.95 c -17.41,-1 -35.11,5.11 -52.19,0.84 -22.38,-26.4 -52.39,-48.75 -87.39,-54.6 -7.55,-0.55 -13.86,-6.44 -21.67,-4.79 -10.26,-3.11 -21.05,0.08 -31.56,-0.26 -32.7,0.66 -63.2,15.29 -89.42,33.54 -15.47,13.19 -28.26,29.28 -37.61,47.38 -3.67,7.65 -5.43,16.06 -9.53,23.54 -2.34,2.94 -0.96,6.61 -0.96,9.98 -5.14,7.34 -0.31,19.41 -9.78,24.2 -10.61,1.95 -24.58,4.86 -33.97,-2.17 l -0.19,-0.94 0.98,0.2 c 7.35,3.45 15.89,2.91 23.76,2.57 5.95,-2.26 6.84,-10.26 5.43,-15.69 2.35,-11.07 4.75,-22.3 7.79,-33.28 8.45,-12.78 11.42,-29.34 23.1,-39.86 16.54,-25.13 44.57,-39.23 70.94,-51.99 z"
       id="path23" /></g><g
     id="#b9a5b8ff"
     transform="translate(0,-0.98577329)"><path
       fill="#b9a5b8"
       opacity="1"
       d="m 21.82,68.88 1.07,0.06 c 0.01,0.78 0.04,2.33 0.05,3.1 -1.51,45.5 -1.62,91.46 -0.06,136.9 l 0.19,0.94 c 0.19,1.1 0.39,2.2 0.58,3.3 -0.48,0.02 -1.45,0.05 -1.93,0.07 -1.8,-47.08 0,-94.31 -0.9,-141.45 0.29,-0.98 0.63,-1.96 1,-2.92 z"
       id="path24" /></g><g
     id="#e7dce5ff"
     transform="translate(0,-0.98577329)"><path
       fill="#e7dce5"
       opacity="1"
       d="m 417.36,68.72 c 0.36,1.66 0.71,3.32 1.03,4.99 -0.92,35.42 -0.07,70.87 -0.46,106.3 -0.57,4 0.14,7.99 2.07,11.49 v 18.98 c -5.34,10.09 0.84,22.04 -2.08,32.82 -1.14,-55.87 -0.67,-112.02 -1.15,-168.06 0.15,-2.18 0.38,-4.35 0.59,-6.52 z"
       id="path25" /></g><g
     id="#d2c7d1ff"
     transform="translate(0,-0.98577329)"><path
       fill="#d2c7d1"
       opacity="1"
       d="m 19.99,210.01 c 0.57,-46.06 -1.09,-92.24 0.83,-138.21 0.9,47.14 -0.9,94.37 0.9,141.45 2.44,16.11 -3.61,32.6 -0.01,48.96 0.97,6.38 -0.25,12.7 -0.58,19.04 -0.17,9.21 -0.25,18.42 -0.12,27.63 1.91,11.43 -1.2,23.08 0.7,34.41 2.58,23.43 18.32,46.26 42.02,51.89 4.58,1.81 9.22,3.91 14.28,3.74 86.67,0.22 173.34,-0.04 260.01,0.13 6.32,0.49 12.48,-1.47 18.28,-3.78 5.27,-1.56 10.34,-4.01 14.98,-6.95 0.49,-0.02 1.47,-0.06 1.97,-0.08 -7.45,7.5 -18.58,8.93 -28.33,11.61 -88.3,0.39 -176.62,-0.03 -264.93,0.2 C 54.45,399.89 29.54,382.11 22.96,357.03 16.92,335.92 21.37,313.6 19.97,292 c 1.18,-27.32 -0.16,-54.64 0.02,-81.99 z"
       id="path26" /></g><g
     id="#a0809fff"
     transform="translate(0,-0.98577329)"><path
       fill="#a0809f"
       opacity="1"
       d="m 22.94,72.04 1.01,-0.12 c -0.2,6.24 -0.55,12.5 -0.19,18.74 -0.62,13.02 -0.11,26.37 0.2,39.34 -0.52,12.27 -0.63,24.45 0.35,36.71 -0.58,12.72 -0.24,25.45 -0.3,38.17 -0.04,1.42 -0.09,2.84 -0.15,4.26 l -0.98,-0.2 c -1.56,-45.44 -1.45,-91.4 0.06,-136.9 z"
       id="path27" /></g><g
     id="#bb79aeff"
     transform="translate(0,-0.98577329)"><path
       fill="#bb79ae"
       opacity="1"
       d="m 204.34,73.41 c 10.51,0.34 21.3,-2.85 31.56,0.26 7.81,-1.65 14.12,4.24 21.67,4.79 35,5.85 65.01,28.2 87.39,54.6 17.08,4.27 34.78,-1.84 52.19,-0.84 -0.01,1.5 0.05,3.01 0.14,4.51 -0.05,0.78 -0.15,2.35 -0.2,3.14 -9.47,-0.63 -17.78,8.41 -27.36,8.52 4.87,-6.85 18.05,-5.57 20.37,-13.33 -18.28,-1.65 -36.64,4.55 -54.77,0.57 -6.65,-2.8 -10.63,-9.48 -15.62,-14.34 -52.4,-46.51 -138.69,-50.28 -193.72,-6.35 -7.92,3.52 -11.97,11.31 -18.76,16.29 -6.27,8.07 -13.94,14.92 -19.12,23.83 -5.8,13.34 -11.84,26.94 -14.89,40.96 -0.69,3.55 1.08,8.96 -2.93,11.29 -13.18,9.56 -31.43,11.08 -46.64,5.87 -0.19,-1.1 -0.39,-2.2 -0.58,-3.3 9.39,7.03 23.36,4.12 33.97,2.17 9.47,-4.79 4.64,-16.86 9.78,-24.2 0,-3.37 -1.38,-7.04 0.96,-9.98 4.1,-7.48 5.86,-15.89 9.53,-23.54 9.35,-18.1 22.14,-34.19 37.61,-47.38 26.22,-18.25 56.72,-32.88 89.42,-33.54 z"
       id="path28" /></g><g
     id="#d0c5cfff"
     transform="translate(0,-0.98577329)"><path
       fill="#d0c5cf"
       opacity="1"
       d="m 418.39,73.71 c 2.11,37.49 -1.14,75.31 1.61,112.76 v 5.03 c -1.93,-3.5 -2.64,-7.49 -2.07,-11.49 0.39,-35.43 -0.46,-70.88 0.46,-106.3 z"
       id="path29" /></g><g
     id="#c581b7ff"
     transform="translate(0,-0.98577329)"><path
       fill="#c581b7"
       opacity="1"
       d="m 125.99,114.94 c 55.03,-43.93 141.32,-40.16 193.72,6.35 4.99,4.86 8.97,11.54 15.62,14.34 18.13,3.98 36.49,-2.22 54.77,-0.57 -2.32,7.76 -15.5,6.48 -20.37,13.33 -3.73,1.99 -9.75,2.6 -10.53,7.58 2.1,8.11 6.88,15.37 9.63,23.19 8.17,5.67 18.63,9.07 28.47,9.18 0.04,0.41 0.11,1.24 0.14,1.65 l -0.46,0.89 c -14.91,-1.19 -28.93,-6.79 -43.31,-10.42 -7.08,-1.41 -15.13,-7.58 -12.03,-15.78 3.33,-16.44 24.2,-16.28 35.45,-24.83 -1.76,-4.33 -7.87,-0.54 -11.04,-1.67 -12.19,1.85 -24.67,-0.67 -36.73,2.17 -11.04,3.99 -13.69,-11.6 -22.51,-14.29 -14.05,-14.32 -32.36,-23.81 -51.55,-29.22 -12.25,-4.16 -25.6,-5.02 -38.48,-4.67 -1.52,-0.03 -3.04,-0.02 -4.55,0.02 -12.61,-0.75 -25.55,0.27 -37.47,4.64 -30.88,7.93 -57.15,29.92 -71.53,58.26 -8.29,11.94 -13.66,26.5 -17.34,40.68 -0.98,8.71 -9.94,12.13 -16.82,15.41 -13.07,6.95 -28.46,6.77 -42.82,5.62 -1.14,-0.98 -1.84,-2.35 -2.6,-3.62 15.21,5.21 33.46,3.69 46.64,-5.87 4.01,-2.33 2.24,-7.74 2.93,-11.29 3.05,-14.02 9.09,-27.62 14.89,-40.96 5.18,-8.91 12.85,-15.76 19.12,-23.83 6.79,-4.98 10.84,-12.77 18.76,-16.29 z"
       id="path30" /></g><g
     id="#e3c7dcff"
     transform="translate(0,-0.98577329)"><path
       fill="#e3c7dc"
       opacity="1"
       d="m 174.76,96.83 c 11.92,-4.37 24.86,-5.39 37.47,-4.64 -12.67,0.21 -25.03,2.93 -37.47,4.64 z"
       id="path31" /></g><g
     id="#e4c6dcff"
     transform="translate(0,-0.98577329)"><path
       fill="#e4c6dc"
       opacity="1"
       d="m 216.78,92.17 c 12.88,-0.35 26.23,0.51 38.48,4.67 -12.76,-1.9 -25.51,-4.19 -38.48,-4.67 z"
       id="path32" /></g><g
     id="#df95ceff"
     transform="translate(0,-0.98577329)"><path
       fill="#df95ce"
       opacity="1"
       d="m 150,133.89 c 17.8,-28.91 60.15,-34.04 88.87,-19.85 4.13,2.96 2.51,5.57 -2.3,4.59 -24.27,-3.59 -48.37,3.08 -70.42,12.55 -5.95,3.11 -11.29,8.12 -18.16,8.92 0.54,-2.11 1.33,-4.14 2.01,-6.21 z"
       id="path33" /></g><g
     id="#e89dd8ff"
     transform="translate(0,-0.98577329)"><path
       fill="#e89dd8"
       opacity="1"
       d="m 238.87,114.04 c 4.84,1.41 9.86,3.95 13.24,7.81 1.71,2.67 5.16,4.65 4.98,8.18 -25.23,-7.35 -52.58,-4.67 -76.69,5.38 -9.66,4.53 -20.78,7.65 -28,15.99 -3.81,2.18 -7.84,4.03 -11.39,6.7 -0.02,-1.81 -0.07,-5.43 -0.09,-7.24 1.56,-6.06 4.11,-12.92 9.08,-16.97 -0.68,2.07 -1.47,4.1 -2.01,6.21 6.87,-0.8 12.21,-5.81 18.16,-8.92 22.05,-9.47 46.15,-16.14 70.42,-12.55 4.81,0.98 6.43,-1.63 2.3,-4.59 z"
       id="path34" /></g><g
     id="#eca6ddff"
     transform="translate(0,-0.98577329)"><path
       fill="#eca6dd"
       opacity="1"
       d="m 252.11,121.85 c 5.6,2.44 10.06,7.42 13.95,12.06 1.07,3.02 2.43,5.98 3.05,9.15 -5.55,-0.11 -9.13,-5.68 -14.86,-5.55 -8.28,-3.44 -17.45,-2.94 -26.21,-2.76 -8.7,-0.09 -18.33,0.12 -24.95,6.65 6.68,3.7 16.5,0.1 23.76,3.67 15.15,5.14 30.49,10.71 42.87,21.23 7.71,4.17 8.92,14.3 5.12,21.58 -5.21,12.06 20.34,3.29 16.13,16.03 -0.76,6.23 -10.05,3.92 -10.89,10.07 2.23,7.66 13.85,10.76 10.52,20.65 -4.88,10.42 -4.97,22.39 -7.5,33.51 -2.84,7.95 -7.01,16.19 -13.24,21.9 0.11,-2.12 3.86,-7.53 -0.51,-6.66 -16.7,7.71 -35.23,9.26 -53.02,12.34 -14.1,-2.95 -28.59,-1.82 -42.45,-5.8 1.59,4.92 7.13,6.35 10.18,10.12 -15.01,-6.93 -27.8,-20.2 -35.17,-34.98 7.35,11.46 20.91,15.83 33.88,15.72 7.7,4.14 16.12,-1.78 24.1,1.52 20.58,-1.83 40.71,-9.7 58.16,-21.23 5.51,-2.16 7.3,-8.09 10.64,-12.42 4.23,-6.9 10.52,-13.82 9.3,-22.55 -2.35,-5.33 -8.68,-9.17 -6.93,-15.9 2.28,-2.79 8.87,-3.48 7.96,-8.1 -1.06,-5.23 -7.98,-4.32 -11.65,-6.44 -5.09,-2.52 -0.78,-9.59 -1.42,-13.71 0.76,-5.75 -4.96,-9.67 -8.61,-13.31 -32.28,-24.46 -79.99,-26.09 -113.97,-4.21 -4.6,4.88 -11.53,8.84 -12.94,15.9 0.96,6.44 -4.56,11.37 -4.07,17.97 -0.51,-15.8 0.72,-33.11 7.58,-47.44 0.02,1.81 0.07,5.43 0.09,7.24 3.55,-2.67 7.58,-4.52 11.39,-6.7 7.22,-8.34 18.34,-11.46 28,-15.99 24.11,-10.05 51.46,-12.73 76.69,-5.38 0.18,-3.53 -3.27,-5.51 -4.98,-8.18 z"
       id="path35" /></g><g
     id="#d590c6ff"
     transform="translate(0,-0.98577329)"><path
       fill="#d590c6"
       opacity="1"
       d="m 306.81,126.06 c 8.82,2.69 11.47,18.28 22.51,14.29 12.06,-2.84 24.54,-0.32 36.73,-2.17 3.17,1.13 9.28,-2.66 11.04,1.67 -11.25,8.55 -32.12,8.39 -35.45,24.83 -3.1,8.2 4.95,14.37 12.03,15.78 14.38,3.63 28.4,9.23 43.31,10.42 -0.49,2.45 -2.7,2.33 -4.67,1.87 -18.62,-3.74 -36.89,-9.02 -55.26,-13.81 -5.02,-0.88 -5.47,-6.58 -5.59,-10.76 4.89,-10.89 15.08,-17.26 25.26,-22.55 1.01,-4.88 -8.29,-2.33 -10.74,-3.61 -9.07,-2.87 -16.4,3.6 -24.93,4.09 -4.27,-7.02 -9.07,-13.67 -14.24,-20.05 z"
       id="path36" /></g><g
     id="#f3afe4ff"
     transform="translate(0,-0.98577329)"><path
       fill="#f3afe4"
       opacity="1"
       d="m 203.09,141.4 c 6.62,-6.53 16.25,-6.74 24.95,-6.65 8.76,-0.18 17.93,-0.68 26.21,2.76 5.73,-0.13 9.31,5.44 14.86,5.55 -0.62,-3.17 -1.98,-6.13 -3.05,-9.15 28.7,34.27 32.05,84.09 20.69,125.96 -1.48,2.66 -0.97,6.44 -3.65,8.27 2.53,-11.12 2.62,-23.09 7.5,-33.51 3.33,-9.89 -8.29,-12.99 -10.52,-20.65 0.84,-6.15 10.13,-3.84 10.89,-10.07 4.21,-12.74 -21.34,-3.97 -16.13,-16.03 3.8,-7.28 2.59,-17.41 -5.12,-21.58 -12.38,-10.52 -27.72,-16.09 -42.87,-21.23 -7.26,-3.57 -17.08,0.03 -23.76,-3.67 z"
       id="path37" /></g><g
     id="#ba9eb6ff"
     transform="translate(0,-0.98577329)"><path
       fill="#ba9eb6"
       opacity="1"
       d="m 397.29,136.73 c 1.26,17.13 1.08,34.46 0.01,51.61 -0.54,-16.15 -0.3,-32.32 -0.21,-48.47 0.05,-0.79 0.15,-2.36 0.2,-3.14 z"
       id="path38" /></g><g
     id="#a76c9eff"
     transform="translate(0,-0.98577329)"><path
       fill="#a76c9e"
       opacity="1"
       d="m 369.73,148.39 c 9.58,-0.11 17.89,-9.15 27.36,-8.52 -0.09,16.15 -0.33,32.32 0.21,48.47 -9.84,-0.11 -20.3,-3.51 -28.47,-9.18 -2.75,-7.82 -7.53,-15.08 -9.63,-23.19 0.78,-4.98 6.8,-5.59 10.53,-7.58 z"
       id="path39" /></g><g
     id="#e7a2d7ff"
     transform="translate(0,-0.98577329)"><path
       fill="#e7a2d7"
       opacity="1"
       d="m 321.05,146.11 c 8.53,-0.49 15.86,-6.96 24.93,-4.09 2.45,1.28 11.75,-1.27 10.74,3.61 -10.18,5.29 -20.37,11.66 -25.26,22.55 0.12,4.18 0.57,9.88 5.59,10.76 18.37,4.79 36.64,10.07 55.26,13.81 1.97,0.46 4.18,0.58 4.67,-1.87 l 0.46,-0.89 c 0.21,0.33 0.62,1.01 0.83,1.34 -0.11,3.83 -0.12,7.65 -0.02,11.48 l -0.88,0.12 c -2.39,-5.78 -10.5,-3.25 -15.36,-4.52 -15.66,1.09 -31.36,0.42 -47.03,0.59 0.03,-0.75 0.09,-2.26 0.12,-3.01 13.28,0.13 26.82,2.55 39.86,-1.15 0.69,-2.56 -2.66,-2.66 -4.24,-3.63 -11.99,-5.3 -25.57,-5.47 -37.64,-10.22 -1.01,-4.29 -2.33,-8.5 -3.47,-12.75 -1.99,-10.86 12.51,-13.72 14.35,-22.04 -7.59,-4.49 -14.01,4.02 -21.3,3.24 -0.54,-1.11 -1.06,-2.23 -1.61,-3.33 z"
       id="path40" /></g><g
     id="#f5afe3ff"
     transform="translate(0,-0.98577329)"><path
       fill="#f5afe3"
       opacity="1"
       d="m 322.66,149.44 c 7.29,0.78 13.71,-7.73 21.3,-3.24 -1.84,8.32 -16.34,11.18 -14.35,22.04 -1.74,-6.47 -3.91,-12.81 -6.95,-18.8 z"
       id="path41" /></g><g
     id="#e4a3d7ff"
     transform="translate(0,-0.98577329)"><path
       fill="#e4a3d7"
       opacity="1"
       d="m 150.35,164.43 c 33.98,-21.88 81.69,-20.25 113.97,4.21 3.65,3.64 9.37,7.56 8.61,13.31 0.64,4.12 -3.67,11.19 1.42,13.71 3.67,2.12 10.59,1.21 11.65,6.44 0.91,4.62 -5.68,5.31 -7.96,8.1 -1.75,6.73 4.58,10.57 6.93,15.9 1.22,8.73 -5.07,15.65 -9.3,22.55 -3.34,4.33 -5.13,10.26 -10.64,12.42 -17.45,11.53 -37.58,19.4 -58.16,21.23 -7.98,-3.3 -16.4,2.62 -24.1,-1.52 -12.97,0.11 -26.53,-4.26 -33.88,-15.72 -6.12,-11.11 -11.28,-23.36 -13.01,-36.01 0.6,6.47 6.1,9.97 11.09,13.01 7.33,3.52 -0.81,13.93 3.79,19.13 12.48,5 24.43,12.44 38.28,12.79 29.97,5.76 63.22,-5.41 82.63,-29.33 5.68,-8.03 12.1,-19.11 5.1,-28.36 -4.69,-6.33 3.41,-9.58 3.13,-15.03 -2.84,-3.54 -9.36,-2.89 -10.59,-7.64 -1.66,-5.33 3.22,-11.45 -2.35,-15.61 -14.23,-17.47 -37.95,-23.86 -59.64,-24.72 -25.09,-0.34 -56.03,8.86 -65.44,34.63 -7.89,7.32 -9.11,17.85 -7.91,28.09 -2.08,-4 -1.04,-12.11 -0.63,-17.71 -0.49,-6.6 5.03,-11.53 4.07,-17.97 1.41,-7.06 8.34,-11.02 12.94,-15.9 z"
       id="path42" /></g><g
     id="#da9bceff"
     transform="translate(0,-0.98577329)"><path
       fill="#da9bce"
       opacity="1"
       d="m 207.32,153.29 c 21.69,0.86 45.41,7.25 59.64,24.72 5.57,4.16 0.69,10.28 2.35,15.61 1.23,4.75 7.75,4.1 10.59,7.64 0.28,5.45 -7.82,8.7 -3.13,15.03 7,9.25 0.58,20.33 -5.1,28.36 -19.41,23.92 -52.66,35.09 -82.63,29.33 -13.85,-0.35 -25.8,-7.79 -38.28,-12.79 -4.6,-5.2 3.54,-15.61 -3.79,-19.13 -4.99,-3.04 -10.49,-6.54 -11.09,-13.01 -1.02,-4.26 -1.57,-8.67 -1.91,-13.04 -1.2,-10.24 0.02,-20.77 7.91,-28.09 9.41,-25.77 40.35,-34.97 65.44,-34.63 m -8.91,4.22 c -20.55,2.46 -43.34,11.57 -52.52,31.42 -9.78,11.94 -13.65,28.77 -6.65,42.85 3.95,3.91 8.79,6.74 13.63,9.38 -2.11,8.78 1.97,17.04 10.51,19.42 26.13,14.32 58.93,12.67 84.64,-1.56 12.1,-8.94 26.14,-18.75 27.95,-35.06 0.87,-6.13 -5.02,-11.96 -1.82,-17.86 3.26,-5.81 -8.44,-6.13 -7.24,-12.06 1.72,-13.26 -10.02,-21.18 -19.91,-27.01 -15.04,-7.1 -31.94,-11.27 -48.59,-9.52 z"
       id="path43" /></g><g
     id="#ce93c2ff"
     transform="translate(0,-0.98577329)"><path
       fill="#ce93c2"
       opacity="1"
       d="m 85.89,195.77 c 3.68,-14.18 9.05,-28.74 17.34,-40.68 -4.19,11.32 -8.78,22.58 -10.47,34.63 -1.54,4.17 -1.68,8.64 -1.82,13.05 -15.49,8.15 -31.62,16.32 -49.39,17.69 -3.72,-1.43 -7.69,2.76 -3.85,4.89 14.8,10.48 33.2,0.23 49.33,-0.35 3.1,-0.65 6.33,5.37 1.95,5.96 -21.61,8.5 -43.34,17.75 -61.72,32.25 -1.78,1.78 -4.09,0.41 -5.55,-1 -3.6,-16.36 2.45,-32.85 0.01,-48.96 0.48,-0.02 1.45,-0.05 1.93,-0.07 0.76,1.27 1.46,2.64 2.6,3.62 14.36,1.15 29.75,1.33 42.82,-5.62 6.88,-3.28 15.84,-6.7 16.82,-15.41 m -63.86,37.38 c -0.21,7.93 0,15.87 -0.11,23.81 0.2,2.61 1.81,5.49 4.71,3.67 15.64,-12.61 36.02,-18.37 51.51,-30.6 -15.91,-0.32 -33.79,6.7 -48.13,-3.02 -4.27,-3.53 -8.56,2 -7.98,6.14 z"
       id="path44" /></g><g
     id="#d093c5ff"
     transform="translate(0,-0.98577329)"><path
       fill="#d093c5"
       opacity="1"
       d="m 198.41,157.51 c 16.65,-1.75 33.55,2.42 48.59,9.52 9.89,5.83 21.63,13.75 19.91,27.01 -1.2,5.93 10.5,6.25 7.24,12.06 -3.2,5.9 2.69,11.73 1.82,17.86 -1.81,16.31 -15.85,26.12 -27.95,35.06 -25.71,14.23 -58.51,15.88 -84.64,1.56 -8.54,-2.38 -12.62,-10.64 -10.51,-19.42 -4.84,-2.64 -9.68,-5.47 -13.63,-9.38 -7,-14.08 -3.13,-30.91 6.65,-42.85 9.18,-19.85 31.97,-28.96 52.52,-31.42 m 3.01,4.04 c -18.54,1.32 -38.65,8.6 -48.52,25.37 -4.04,6.09 -9.5,11.66 -10.96,19.06 -3.3,11.8 -0.76,27.1 11.78,32.3 4.43,2.48 1.1,9.01 5.01,12 14.12,16.81 37.94,15.21 57.58,15.09 14.36,-2.97 29.46,-7.21 39.96,-18.1 12.15,-10.54 19.46,-27.37 13.43,-42.98 -2.67,-3.32 -10.01,-3.21 -6.27,-9.92 2.34,-11.05 -9.53,-17.39 -16.77,-23.01 -13.87,-7.03 -29.54,-12.03 -45.24,-9.81 z"
       id="path45" /></g><g
     id="#c68bbdff"
     transform="translate(0,-0.98577329)"><path
       fill="#c68bbd"
       opacity="1"
       d="m 201.42,161.55 c 15.7,-2.22 31.37,2.78 45.24,9.81 7.24,5.62 19.11,11.96 16.77,23.01 -3.74,6.71 3.6,6.6 6.27,9.92 6.03,15.61 -1.28,32.44 -13.43,42.98 -10.5,10.89 -25.6,15.13 -39.96,18.1 -19.64,0.12 -43.46,1.72 -57.58,-15.09 -3.91,-2.99 -0.58,-9.52 -5.01,-12 -12.54,-5.2 -15.08,-20.5 -11.78,-32.3 1.46,-7.4 6.92,-12.97 10.96,-19.06 9.87,-16.77 29.98,-24.05 48.52,-25.37 m -3.02,3.9 c -6.7,2.43 -14.2,1.5 -20.41,5.53 -13.6,5.34 -22.24,17.39 -29.65,29.34 -3.59,10.2 -4.87,23.77 2.94,32.43 9.25,4.05 7.28,16.19 16.71,20.25 18.2,9.06 39.23,10.27 58.89,5.85 12.82,-5.83 28.37,-11.36 35.03,-24.93 4.87,-8.44 10.4,-19.79 2.87,-28.55 -2.93,-0.8 -8.62,-2.68 -6.11,-6.68 4.05,-6.71 -0.39,-14.27 -6.38,-18.01 -14.66,-12.51 -34.93,-17.59 -53.89,-15.23 z"
       id="path46" /></g><g
     id="#be84b5ff"
     transform="translate(0,-0.98577329)"><path
       fill="#be84b5"
       opacity="1"
       d="m 198.4,165.45 c 18.96,-2.36 39.23,2.72 53.89,15.23 5.99,3.74 10.43,11.3 6.38,18.01 -2.51,4 3.18,5.88 6.11,6.68 7.53,8.76 2,20.11 -2.87,28.55 -6.66,13.57 -22.21,19.1 -35.03,24.93 -19.66,4.42 -40.69,3.21 -58.89,-5.85 -9.43,-4.06 -7.46,-16.2 -16.71,-20.25 -7.81,-8.66 -6.53,-22.23 -2.94,-32.43 7.41,-11.95 16.05,-24 29.65,-29.34 6.21,-4.03 13.71,-3.1 20.41,-5.53 m 8,4.15 c -18.65,1.01 -38.94,7.97 -48.83,25.02 -8.09,10.03 -9.83,25.32 -2.32,36.1 6.9,5.73 8.45,16.05 17.69,19.39 12.54,4.89 26.49,7.58 40.05,5.85 22.75,-1.49 47.21,-16.83 50.02,-40.96 2.05,-6.61 -5.87,-8.14 -8.89,-12.19 -0.73,-3.46 1.66,-6.45 2.6,-9.63 -10.53,-16.52 -31.51,-23.63 -50.32,-23.58 z"
       id="path47" /></g><g
     id="#b77fafff"
     transform="translate(0,-0.98577329)"><path
       fill="#b77faf"
       opacity="1"
       d="m 206.4,169.6 c 18.81,-0.05 39.79,7.06 50.32,23.58 -0.94,3.18 -3.33,6.17 -2.6,9.63 3.02,4.05 10.94,5.58 8.89,12.19 -2.81,24.13 -27.27,39.47 -50.02,40.96 -13.56,1.73 -27.51,-0.96 -40.05,-5.85 -9.24,-3.34 -10.79,-13.66 -17.69,-19.39 -7.51,-10.78 -5.77,-26.07 2.32,-36.1 9.89,-17.05 30.18,-24.01 48.83,-25.02 z"
       id="path48" /></g><g
     id="#f9b4e9ff"
     transform="translate(0,-0.98577329)"><path
       fill="#f9b4e9"
       opacity="1"
       d="m 333.08,180.99 c 12.07,4.75 25.65,4.92 37.64,10.22 1.58,0.97 4.93,1.07 4.24,3.63 -13.04,3.7 -26.58,1.28 -39.86,1.15 -0.03,0.75 -0.09,2.26 -0.12,3.01 -0.16,5.97 0.37,11.98 -0.17,17.94 l -0.92,-0.04 c 0.33,-11.97 0.31,-23.98 -0.81,-35.91 z"
       id="path49" /></g><g
     id="#efaee0ff"
     transform="translate(0,-0.98577329)"><path
       fill="#efaee0"
       opacity="1"
       d="m 90.94,202.77 c 0.14,-4.41 0.28,-8.88 1.82,-13.05 -0.07,11.05 -2.56,22.02 -0.52,33.05 -13.03,-1.86 -25.8,5.24 -39.02,3.05 -2.58,-1.35 0.34,-3.09 1.78,-3.79 11.91,-5.11 23.95,-9.91 35.66,-15.48 0.23,-1.25 0.33,-2.51 0.28,-3.78 z"
       id="path50" /><path
       fill="#efaee0"
       opacity="1"
       d="m 111.15,274.85 c 3.97,7.58 10.02,13.66 15.85,19.8 -4.91,4.55 -8.48,11.98 -15.92,12.44 -0.3,-10.74 -0.02,-21.49 0.07,-32.24 z"
       id="path51" /></g><g
     id="#dc97cdff"
     transform="translate(0,-0.98577329)"><path
       fill="#dc97cd"
       opacity="1"
       d="m 334.98,199 c 15.67,-0.17 31.37,0.5 47.03,-0.59 4.86,1.27 12.97,-1.26 15.36,4.52 -16.84,-5.23 -34.84,-2.3 -52.08,-1.63 -8.18,4.14 -7.67,19.41 -0.11,24.53 13.25,9.01 27.42,17.84 43.78,19.44 0.9,5.09 -6.44,5.89 -9.83,5.52 -15.22,-1.68 -28.99,-13.3 -44.43,-10.12 -6.94,13.19 -12.57,27.94 -23.81,38.29 8.53,-12.48 15.25,-26.26 19.19,-40.87 12.88,-6 26.92,5.18 40.23,6.71 -11.46,-7.76 -23.92,-13.94 -35.29,-21.81 -2.19,-1.33 -0.1,-4.08 -0.21,-6.05 0.54,-5.96 0.01,-11.97 0.17,-17.94 z"
       id="path52" /></g><g
     id="#d08bc2ff"
     transform="translate(0,-0.98577329)"><path
       fill="#d08bc2"
       opacity="1"
       d="m 345.29,201.3 c 17.24,-0.67 35.24,-3.6 52.08,1.63 l -0.29,1.09 c -13.5,-2.61 -28.14,-3.54 -41.33,0.73 -3.99,5.24 -0.94,13.83 -2.71,20.17 10.04,12.87 28.66,19.32 44,11.15 -0.01,4.55 -0.01,9.12 -0.11,13.69 -16.01,9.87 -32.62,-3.92 -48.94,-4.83 -2.34,-0.51 -4.16,1.07 -4.89,3.17 -11.36,25.21 -30.8,47.23 -56.39,58.61 -11.62,6.8 -24.58,11.77 -37.77,14.4 l 0.18,-1.02 c 24.49,-6.48 45.99,-21.43 61.77,-41.13 11.24,-10.35 16.87,-25.1 23.81,-38.29 15.44,-3.18 29.21,8.44 44.43,10.12 3.39,0.37 10.73,-0.43 9.83,-5.52 -16.36,-1.6 -30.53,-10.43 -43.78,-19.44 -7.56,-5.12 -8.07,-20.39 0.11,-24.53 z"
       id="path53" /></g><g
     id="#be7bb1ff"
     transform="translate(0,-0.98577329)"><path
       fill="#be7bb1"
       opacity="1"
       d="m 355.75,204.75 c 13.19,-4.27 27.83,-3.34 41.33,-0.73 -0.02,0.72 -0.05,2.18 -0.06,2.91 -7.44,-2.23 -17.19,-4.08 -23.78,0.41 0.16,8.1 -5.63,19.75 2.13,25.44 7.18,0.29 14.58,1.01 21.62,-0.87 0.03,1.38 0.04,2.77 0.05,4.16 -15.34,8.17 -33.96,1.72 -44,-11.15 1.77,-6.34 -1.28,-14.93 2.71,-20.17 z"
       id="path54" /></g><g
     id="#db9eceff"
     transform="translate(0,-0.98577329)"><path
       fill="#db9ece"
       opacity="1"
       d="m 41.55,220.46 c 17.77,-1.37 33.9,-9.54 49.39,-17.69 0.05,1.27 -0.05,2.53 -0.28,3.78 -11.71,5.57 -23.75,10.37 -35.66,15.48 -1.44,0.7 -4.36,2.44 -1.78,3.79 13.22,2.19 25.99,-4.91 39.02,-3.05 0.43,1.99 0.76,4 1.06,6.01 -0.07,1.37 -0.16,2.74 -0.27,4.11 -16.58,4.87 -34.11,10.66 -47.19,22.22 11.54,-2.71 21.9,-10.46 34.14,-10.16 2.8,-0.16 5.14,3.16 3.7,5.72 -3,7.89 -10.14,13.48 -12.81,21.45 11.29,-2.49 18.45,-17.01 30.37,-15.46 0.38,1.02 0.75,2.06 1.1,3.1 -1.51,-0.53 -3.06,-2.29 -4.68,-1.13 -21.52,10.74 -37.6,29.83 -56.79,43.49 10.61,-18.92 31.35,-31.06 39.83,-51.46 1.89,-6.14 -8.13,-3.74 -11.05,-2.16 -15.18,6.34 -30.45,12.88 -44.28,21.9 -1.95,1.1 -1.91,3.64 -2.57,5.53 -0.54,1.78 -1.08,3.56 -1.67,5.32 0.33,-6.34 1.55,-12.66 0.58,-19.04 1.46,1.41 3.77,2.78 5.55,1 18.38,-14.5 40.11,-23.75 61.72,-32.25 4.38,-0.59 1.15,-6.61 -1.95,-5.96 -16.13,0.58 -34.53,10.83 -49.33,0.35 -3.84,-2.13 0.13,-6.32 3.85,-4.89 z"
       id="path55" /></g><g
     id="#d1c0ceff"
     transform="translate(0,-0.98577329)"><path
       fill="#d1c0ce"
       opacity="1"
       d="m 397.37,202.93 0.88,-0.12 c 1.61,10.98 0.37,22.14 0.74,33.2 0.01,6.32 0.03,12.66 0.01,18.99 -0.01,30.35 0,60.69 0,91.03 -0.75,6.42 -2.9,12.75 -5.09,18.77 -1.91,2.79 -3.81,5.59 -5.84,8.29 5.76,-11.86 10.69,-24.63 9.97,-38.08 -0.59,-26.75 1,-53.58 -0.83,-80.26 -0.05,-0.47 -0.13,-1.41 -0.18,-1.87 -0.02,-0.78 -0.08,-2.34 -0.1,-3.12 0.1,-4.57 0.1,-9.14 0.11,-13.69 -0.01,-1.39 -0.02,-2.78 -0.05,-4.16 0,-8.33 0.04,-16.66 0.03,-24.98 0.01,-0.73 0.04,-2.19 0.06,-2.91 z"
       id="path56" /></g><g
     id="#ab6fa2ff"
     transform="translate(0,-0.98577329)"><path
       fill="#ab6fa2"
       opacity="1"
       d="m 373.24,207.34 c 6.59,-4.49 16.34,-2.64 23.78,-0.41 0.01,8.32 -0.03,16.65 -0.03,24.98 -7.04,1.88 -14.44,1.16 -21.62,0.87 -7.76,-5.69 -1.97,-17.34 -2.13,-25.44 z"
       id="path57" /><path
       fill="#ab6fa2"
       opacity="1"
       d="m 368.74,258.79 c 8.77,-4.27 18.94,2.98 28.32,-0.85 0,0.48 -0.01,1.43 -0.02,1.91 -7.04,-0.55 -15.13,-1.64 -21.66,1.49 -3.36,8.99 -9.84,16.17 -14.77,24.26 -15.12,25.14 -39.19,43.09 -65.32,55.66 -9.53,1.11 -15.24,10.6 -25.34,9.64 -16.2,3.75 -32.5,9.8 -49.44,7.58 -5.37,5.59 -13.03,-1.7 -19.52,-0.13 -5.35,1.75 -9.94,-2.58 -15.13,-1.65 -3.22,0.66 -5.85,-1.7 -8.56,-2.97 -20.84,-1.75 -42.33,-10.57 -59.42,-23.65 -6.78,-3.66 -13.37,-1.59 -19.08,2.79 5.59,-6.66 14.92,-11.5 23.54,-10.25 8.48,8.24 20.61,10.17 30.03,16.98 14.28,3.89 28.3,9.19 43.31,10.01 7.65,3.64 16.14,1.28 24.3,1.91 9.98,-1.59 20.59,0.3 29.87,-4.62 18.57,-2.53 37.7,-7.85 53.64,-18.34 11.24,-1.18 16.5,-11.47 25.28,-16.84 18.28,-13.17 29.26,-33.78 39.97,-52.93 z"
       id="path58" /></g><g
     id="#f2eff2ff"
     transform="translate(0,-0.98577329)"><path
       fill="#f2eff2"
       opacity="1"
       d="m 18.07,210.01 0.95,-0.02 0.97,0.02 c -0.18,27.35 1.16,54.67 -0.02,81.99 1.4,21.6 -3.05,43.92 2.99,65.03 6.58,25.08 31.49,42.86 57.03,43.02 88.31,-0.23 176.63,0.19 264.93,-0.2 9.75,-2.68 20.88,-4.11 28.33,-11.61 5.27,-4.66 10.65,-9.41 14.82,-15.15 2.03,-2.7 3.93,-5.5 5.84,-8.29 3.51,2.59 -3.29,7.78 -4.62,10.46 -8.19,13.15 -22.2,20.99 -36.67,25.32 -23.46,2.5 -47.08,1.04 -70.62,1.42 -68.2,-0.29 -136.44,0.58 -204.62,-0.43 -33.37,-0.06 -63.95,-33.09 -58.4,-66.6 -1.67,-41.6 0.73,-83.29 -0.91,-124.96 z"
       id="path59" /></g><g
     id="#d0c3cfff"
     transform="translate(0,-0.98577329)"><path
       fill="#d0c3cf"
       opacity="1"
       d="m 417.92,243.3 c 2.92,-10.78 -3.26,-22.73 2.08,-32.82 v 37.05 c -2.81,32.78 0.6,65.98 -1.65,98.77 -0.95,-33.5 0.17,-67.03 -0.58,-100.53 0.04,-0.62 0.11,-1.85 0.15,-2.47 z"
       id="path60" /></g><g
     id="#eca2daff"
     transform="translate(0,-0.98577329)"
     style="display:inline"><path
       fill="#eca2da"
       opacity="1"
       d="m 333.89,216.9 0.92,0.04 c 0.11,1.97 -1.98,4.72 0.21,6.05 11.37,7.87 23.83,14.05 35.29,21.81 -13.31,-1.53 -27.35,-12.71 -40.23,-6.71 1.92,-6.95 3.31,-13.99 3.81,-21.19 z"
       id="path61" /></g><g
     id="#dcd4dbff"
     transform="translate(0,-0.98577329)"><path
       fill="#dcd4db"
       opacity="1"
       d="m 0,221.06 1.07,0.07 C 0.33,241.22 2.28,261.46 0,281.45 Z"
       id="path62" /></g><g
     id="#be85b4ff"
     transform="translate(0,-0.98577329)"><path
       fill="#be85b4"
       opacity="1"
       d="m 22.03,233.15 c -0.58,-4.14 3.71,-9.67 7.98,-6.14 14.34,9.72 32.22,2.7 48.13,3.02 -15.49,12.23 -35.87,17.99 -51.51,30.6 -2.9,1.82 -4.51,-1.06 -4.71,-3.67 1.38,0.69 2.84,2.91 4.39,1.36 11.49,-8.5 25.79,-12.94 35.96,-23.17 -11.31,-0.72 -23.7,2.45 -33.58,-4.83 -2.91,-2.72 -5.18,0.36 -6.66,2.83 z"
       id="path63" /></g><g
     id="#ac78a4ff"
     transform="translate(0,-0.98577329)"><path
       fill="#ac78a4"
       opacity="1"
       d="m 22.03,233.15 c 1.48,-2.47 3.75,-5.55 6.66,-2.83 9.88,7.28 22.27,4.11 33.58,4.83 -10.17,10.23 -24.47,14.67 -35.96,23.17 -1.55,1.55 -3.01,-0.67 -4.39,-1.36 0.11,-7.94 -0.1,-15.88 0.11,-23.81 m 3.16,0.89 c -3.3,6.62 -1.57,14.79 -1,21.96 8.25,-3.94 17.32,-9.28 23.78,-15.85 -7.5,-1.88 -15.27,-4.04 -22.78,-6.11 z"
       id="path64" /></g><g
     id="#f4b2e4ff"
     transform="translate(0,-0.98577329)"><path
       fill="#f4b2e4"
       opacity="1"
       d="m 93.3,228.78 c 1.95,8.42 3.18,17.12 6.81,25.05 -5.57,-2.67 -9.63,4.73 -15.19,4.24 1.25,-6.01 5.51,-15.13 -2.51,-17.33 1.1,-2.91 11.64,-1.89 10.62,-7.85 0.11,-1.37 0.2,-2.74 0.27,-4.11 z"
       id="path65" /></g><g
     id="#e7a5d8ff"
     transform="translate(0,-0.98577329)"><path
       fill="#e7a5d8"
       opacity="1"
       d="m 45.84,255.11 c 13.08,-11.56 30.61,-17.35 47.19,-22.22 1.02,5.96 -9.52,4.94 -10.62,7.85 8.02,2.2 3.76,11.32 2.51,17.33 5.56,0.49 9.62,-6.91 15.19,-4.24 0.39,0.93 0.77,1.88 1.13,2.83 -11.92,-1.55 -19.08,12.97 -30.37,15.46 2.67,-7.97 9.81,-13.56 12.81,-21.45 1.44,-2.56 -0.9,-5.88 -3.7,-5.72 -12.24,-0.3 -22.6,7.45 -34.14,10.16 z"
       id="path66" /></g><g
     id="#9c6997ff"
     transform="translate(0,-0.98577329)"><path
       fill="#9c6997"
       opacity="1"
       d="m 25.19,234.04 c 7.51,2.07 15.28,4.23 22.78,6.11 -6.46,6.57 -15.53,11.91 -23.78,15.85 -0.57,-7.17 -2.3,-15.34 1,-21.96 z"
       id="path67" /></g><g
     id="#c580b7ff"
     transform="translate(0,-0.98577329)"><path
       fill="#c580b7"
       opacity="1"
       d="m 343.1,248.1 c 0.73,-2.1 2.55,-3.68 4.89,-3.17 16.32,0.91 32.93,14.7 48.94,4.83 0.02,0.78 0.08,2.34 0.1,3.12 -11.48,5.32 -23.97,-0.06 -35.44,-2.46 -7.96,-3.8 -11.45,6.04 -12.42,11.86 -10.91,13.79 -19.85,30.16 -35.38,39.51 -8.84,5.89 -16.64,13.91 -27.18,16.73 -19.92,9.64 -41.84,14.83 -64.03,14.99 -32.6,2.65 -64.06,-8.75 -92.94,-23.14 -4.06,-0.49 -7.89,2.58 -11.81,3.49 4.3,-3.81 9.18,-6.96 14.16,-9.8 13.12,6.74 26.37,14.65 41.16,16.94 11.84,2.58 23.9,4.61 36.08,3.83 1.82,0.05 3.65,0.03 5.48,-0.09 11.62,1.49 23,-1.14 34.23,-3.63 13.19,-2.63 26.15,-7.6 37.77,-14.4 25.59,-11.38 45.03,-33.4 56.39,-58.61 z"
       id="path68" /></g><g
     id="#e2dde2ff"
     transform="translate(0,-0.98577329)"><path
       fill="#e2dde2"
       opacity="1"
       d="m 417.06,341.01 c 0.38,-31.74 -1.05,-63.56 0.71,-95.24 0.75,33.5 -0.37,67.03 0.58,100.53 -1.16,5.35 -0.87,11.25 -4.27,15.84 -0.12,-7.25 4.04,-13.81 2.98,-21.13 z"
       id="path69" /></g><g
     id="#ce95c2ff"
     transform="translate(0,-0.98577329)"><path
       fill="#ce95c2"
       opacity="1"
       d="m 69.65,248.5 c 2.92,-1.58 12.94,-3.98 11.05,2.16 -8.48,20.4 -29.22,32.54 -39.83,51.46 19.19,-13.66 35.27,-32.75 56.79,-43.49 1.62,-1.16 3.17,0.6 4.68,1.13 2.04,3.94 4.02,7.91 6.14,11.82 1.59,7.7 -5.03,15.38 -0.7,22.58 -0.28,8.33 -3.95,16.21 -6.79,23.95 13.01,-1.45 19.78,-15.81 31.08,-19.37 0.7,0.63 1.38,1.26 2.05,1.92 -8.34,1.28 -12.66,9.95 -19.86,13.6 -8.69,5.15 -16.3,11.8 -24.4,17.78 5.51,-13.46 19.06,-26.29 13.48,-42.05 3.28,-9.05 4.45,-23.82 -6.32,-28.04 -12.75,4.83 -23.68,14.4 -32.94,24.23 -12.09,10.17 -22.02,22.65 -34.44,32.45 -2.55,1.83 -4.68,4.22 -5.91,7.13 -2.68,5.4 -1.36,11.7 -2.02,17.53 -1.9,-11.33 1.21,-22.98 -0.7,-34.41 1.16,1.59 2.34,3.23 3.99,4.36 16.51,-20.34 37.45,-37.35 51.67,-59.55 0.95,-5.99 -7.54,-3.7 -11,-2.04 -14.7,7.25 -29.91,14.12 -42.87,24.28 0.66,-1.89 0.62,-4.43 2.57,-5.53 13.83,-9.02 29.1,-15.56 44.28,-21.9 z"
       id="path70" /></g><g
     id="#b8abb9ff"
     transform="translate(0,-0.98577329)"><path
       fill="#b8abb9"
       opacity="1"
       d="m 418.35,346.3 c 2.25,-32.79 -1.16,-65.99 1.65,-98.77 v 99.05 c -1.59,7.62 -3.26,15.25 -5.86,22.61 -0.07,-2.11 -0.22,-4.21 -0.29,-6.3 l 0.23,-0.75 c 3.4,-4.59 3.11,-10.49 4.27,-15.84 z"
       id="path71" /></g><g
     id="#b988b1ff"
     transform="translate(0,-0.98577329)"><path
       fill="#b988b1"
       opacity="1"
       d="m 65.67,251.65 c 3.46,-1.66 11.95,-3.95 11,2.04 -14.22,22.2 -35.16,39.21 -51.67,59.55 -1.65,-1.13 -2.83,-2.77 -3.99,-4.36 -0.13,-9.21 -0.05,-18.42 0.12,-27.63 0.59,-1.76 1.13,-3.54 1.67,-5.32 12.96,-10.16 28.17,-17.03 42.87,-24.28 m -0.29,2.73 c -12.44,4.27 -23.11,12.23 -34.63,18.39 -2.58,2.06 -7.99,3.06 -6.63,7.39 -0.46,1.25 -1.21,2.48 -1.1,3.87 -1.46,5.37 -3.05,17.47 1.16,23.92 3.58,-0.42 5.24,-4.84 8.08,-6.69 12.4,-13.62 25.21,-26.84 36.94,-41.03 2.92,-2.94 2.85,-9.82 -3.82,-5.85 z"
       id="path72" /></g><g
     id="#ba7aaeff"
     transform="translate(0,-0.98577329)"><path
       fill="#ba7aae"
       opacity="1"
       d="m 349.17,262.28 c 0.97,-5.82 4.46,-15.66 12.42,-11.86 11.47,2.4 23.96,7.78 35.44,2.46 0.05,0.46 0.13,1.4 0.18,1.87 l -0.06,1.06 c -11.16,1.88 -22.1,-0.07 -33.06,-1.82 -5.81,2.98 -5.01,11.22 -9.46,15.63 -3.72,2.34 -5.53,6.26 -6.69,10.34 -8.76,9.76 -17.7,19.6 -27.21,28.75 -14.23,7.57 -26.92,20.44 -43.43,22.51 -3.14,0.94 -6.17,2.25 -8.54,4.58 -32.86,8.81 -68.51,11.62 -100.93,-0.56 -14.34,-3.4 -27.97,-10.02 -40.22,-17.91 -6.02,-2.77 -11.22,1.44 -16.26,4.06 -11.39,6.13 -19.78,16.32 -27.65,26.33 -2.03,2.96 -5.82,3.23 -8.98,4.15 2.53,-16.24 16.16,-27.54 21,-42.87 -1.49,-8.69 -6.95,-15.6 -12.94,-21.75 -2.28,-2.25 -4.19,-7.21 -8.14,-4.65 -18.88,11.56 -32.95,29.23 -49.95,43.17 l -0.96,-0.01 c 1.23,-2.91 3.36,-5.3 5.91,-7.13 12.42,-9.8 22.35,-22.28 34.44,-32.45 8.99,-5.51 16.42,-15.62 27.61,-16.09 9.6,9.86 9.07,23.56 8.73,36.26 -3.04,13.89 -17.67,23.27 -18.41,37.79 7.14,-3.58 11.34,-11.51 17.68,-16.46 5.03,-5.93 12.85,-8.2 18.14,-13.82 3.92,-0.91 7.75,-3.98 11.81,-3.49 28.88,14.39 60.34,25.79 92.94,23.14 22.19,-0.16 44.11,-5.35 64.03,-14.99 10.54,-2.82 18.34,-10.84 27.18,-16.73 15.53,-9.35 24.47,-25.72 35.38,-39.51 z"
       id="path73" /></g><g
     id="#a3749eff"
     transform="translate(0,-0.98577329)"><path
       fill="#a3749e"
       opacity="1"
       d="m 65.38,254.38 c 6.67,-3.97 6.74,2.91 3.82,5.85 -11.73,14.19 -24.54,27.41 -36.94,41.03 -2.84,1.85 -4.5,6.27 -8.08,6.69 -4.21,-6.45 -2.62,-18.55 -1.16,-23.92 1.68,6.42 -1.93,15.37 2.11,19.93 8.5,-6.84 16.79,-16.13 23.23,-25.61 4.43,-4.72 9.37,-9.21 11.61,-15.49 -13.06,2.51 -24.32,10.97 -35.85,17.3 -1.36,-4.33 4.05,-5.33 6.63,-7.39 11.52,-6.16 22.19,-14.12 34.63,-18.39 z"
       id="path74" /></g><g
     id="#b274a8ff"
     transform="translate(0,-0.98577329)"><path
       fill="#b274a8"
       opacity="1"
       d="m 354.63,269.62 c 4.45,-4.41 3.65,-12.65 9.46,-15.63 10.96,1.75 21.9,3.7 33.06,1.82 -0.02,0.53 -0.07,1.59 -0.09,2.13 -9.38,3.83 -19.55,-3.42 -28.32,0.85 -10.71,19.15 -21.69,39.76 -39.97,52.93 -8.78,5.37 -14.04,15.66 -25.28,16.84 -15.94,10.49 -35.07,15.81 -53.64,18.34 -9.28,4.92 -19.89,3.03 -29.87,4.62 -8.16,-0.63 -16.65,1.73 -24.3,-1.91 -15.01,-0.82 -29.03,-6.12 -43.31,-10.01 -9.42,-6.81 -21.55,-8.74 -30.03,-16.98 -8.62,-1.25 -17.95,3.59 -23.54,10.25 -8.62,7.75 -13.88,18.65 -23.18,25.73 -3.78,2.56 -1.11,-4.55 -0.9,-6.73 3.16,-0.92 6.95,-1.19 8.98,-4.15 7.87,-10.01 16.26,-20.2 27.65,-26.33 5.04,-2.62 10.24,-6.83 16.26,-4.06 12.25,7.89 25.88,14.51 40.22,17.91 32.42,12.18 68.07,9.37 100.93,0.56 2.37,-2.33 5.4,-3.64 8.54,-4.58 16.51,-2.07 29.2,-14.94 43.43,-22.51 9.51,-9.15 18.45,-18.99 27.21,-28.75 1.16,-4.08 2.97,-8 6.69,-10.34 z"
       id="path75" /></g><g
     id="#ad9baeff"
     transform="translate(0,-0.98577329)"><path
       fill="#ad9bae"
       opacity="1"
       d="m 397.21,254.75 c 1.83,26.68 0.24,53.51 0.83,80.26 0.72,13.45 -4.21,26.22 -9.97,38.08 -4.17,5.74 -9.55,10.49 -14.82,15.15 -0.5,0.02 -1.48,0.06 -1.97,0.08 0.18,-0.6 0.53,-1.8 0.71,-2.4 4.86,-2.81 8.63,-7.38 12.19,-11.65 11.54,-16.07 13.92,-36.81 12.67,-56.05 0.07,-5.66 0.13,-11.31 -0.1,-16.95 0.29,-9.35 0.35,-18.72 0.15,-28.07 0,-3.42 0.15,-6.8 0.13,-10.2 0.01,-0.79 0.01,-2.37 0.01,-3.15 0.01,-0.48 0.02,-1.43 0.02,-1.91 0.02,-0.54 0.07,-1.6 0.09,-2.13 z"
       id="path76" /></g><g
     id="#eae6eaff"
     transform="translate(0,-0.98577329)"><path
       fill="#eae6ea"
       opacity="1"
       d="m 399,255 h 0.97 c 0.05,30.32 0.05,60.65 0,90.97 l -0.97,0.06 c 0,-30.34 -0.01,-60.68 0,-91.03 z"
       id="path77" /></g><g
     id="#a46c9cff"
     transform="translate(0,-0.98577329)"><path
       fill="#a46c9c"
       opacity="1"
       d="m 375.38,261.34 c 6.53,-3.13 14.62,-2.04 21.66,-1.49 0,0.78 0,2.36 -0.01,3.15 -3.32,-2.56 -7.45,-1.83 -11.06,-0.05 -7.03,2.31 -6.23,11.27 -8.99,16.97 -6.25,3.05 -6.73,11.03 -11.43,15.68 -7.4,8.23 -12.8,18.47 -21.63,25.24 -9.51,5.04 -15.29,15.21 -25.91,18.23 -5.42,3.94 -11.79,6.15 -17.73,9.18 -3.39,5.05 -10.61,3.93 -14.98,8.03 -10.85,2.1 -20.31,9.99 -31.82,8.41 -8.44,6.54 -19,1.83 -28.18,5.48 -10.26,-0.8 -20.84,-0.14 -31.18,-0.9 -18.96,-1.56 -37,-8.31 -54.82,-14.61 -13.69,-4.11 -22.29,-16.56 -36.18,-19.63 -12.46,5.22 -17.35,19.56 -27.04,28.02 -3.14,2.59 -9.03,0.07 -6.14,-5.1 -0.16,-14.87 13.8,-24.7 15.05,-38.86 -3.27,-5.78 -8.66,-10.18 -12.56,-15.52 -3.95,-2.12 -4.46,-9.27 -10.1,-7.27 -7.71,5.11 -15.58,10.48 -21.46,17.74 -8.07,6.16 -17.66,12.72 -16.61,24.25 -0.31,-4.19 -0.36,-8.38 0.43,-12.52 17,-13.94 31.07,-31.61 49.95,-43.17 3.95,-2.56 5.86,2.4 8.14,4.65 5.99,6.15 11.45,13.06 12.94,21.75 -4.84,15.33 -18.47,26.63 -21,42.87 -0.21,2.18 -2.88,9.29 0.9,6.73 9.3,-7.08 14.56,-17.98 23.18,-25.73 5.71,-4.38 12.3,-6.45 19.08,-2.79 17.09,13.08 38.58,21.9 59.42,23.65 2.71,1.27 5.34,3.63 8.56,2.97 5.19,-0.93 9.78,3.4 15.13,1.65 6.49,-1.57 14.15,5.72 19.52,0.13 16.94,2.22 33.24,-3.83 49.44,-7.58 10.1,0.96 15.81,-8.53 25.34,-9.64 26.13,-12.57 50.2,-30.52 65.32,-55.66 4.93,-8.09 11.41,-15.27 14.77,-24.26 z"
       id="path78" /></g><g
     id="#9a6695ff"
     transform="translate(0,-0.98577329)"><path
       fill="#9a6695"
       opacity="1"
       d="m 385.97,262.95 c 3.61,-1.78 7.74,-2.51 11.06,0.05 0.02,3.4 -0.13,6.78 -0.13,10.2 -1.15,-1.43 -1.45,-4.24 -3.7,-4.18 -5.07,7.45 -8.61,15.72 -12.28,23.89 -23.89,36.54 -60.39,64.56 -101.94,77.97 -9.05,1.38 -15.76,9.2 -25.65,6.69 -14.72,3 -30.35,6.64 -45.69,4.79 -4.18,-1.49 -8.64,-1.53 -12.81,-0.04 -14.35,-3.78 -29.39,-5.58 -43.28,-10.75 -15.1,-0.12 -26.28,-11.42 -39.6,-16.49 -2.78,-4.42 -8.42,-5.3 -11.77,-9.21 -2.6,-2.44 -5.93,0.58 -8.21,2.1 -7.19,6.96 -12.29,16.75 -21.83,20.94 -7.99,-11.22 2.88,-24.95 6.75,-36.02 2.34,-3.38 0.09,-6.95 -2.9,-8.9 -7.12,-5.36 -11.26,-13.41 -18.16,-19.01 -6.01,1.05 -9.38,7.05 -14.96,9.06 5.88,-7.26 13.75,-12.63 21.46,-17.74 5.64,-2 6.15,5.15 10.1,7.27 3.9,5.34 9.29,9.74 12.56,15.52 -1.25,14.16 -15.21,23.99 -15.05,38.86 -2.89,5.17 3,7.69 6.14,5.1 9.69,-8.46 14.58,-22.8 27.04,-28.02 13.89,3.07 22.49,15.52 36.18,19.63 17.82,6.3 35.86,13.05 54.82,14.61 10.34,0.76 20.92,0.1 31.18,0.9 9.18,-3.65 19.74,1.06 28.18,-5.48 11.51,1.58 20.97,-6.31 31.82,-8.41 4.37,-4.1 11.59,-2.98 14.98,-8.03 5.94,-3.03 12.31,-5.24 17.73,-9.18 10.62,-3.02 16.4,-13.19 25.91,-18.23 8.83,-6.77 14.23,-17.01 21.63,-25.24 4.7,-4.65 5.18,-12.63 11.43,-15.68 2.76,-5.7 1.96,-14.66 8.99,-16.97 z"
       id="path79" /></g><g
     id="#c789bbff"
     transform="translate(0,-0.98577329)"><path
       fill="#c789bb"
       opacity="1"
       d="m 64.08,286.18 c 9.26,-9.83 20.19,-19.4 32.94,-24.23 10.77,4.22 9.6,18.99 6.32,28.04 5.58,15.76 -7.97,28.59 -13.48,42.05 8.1,-5.98 15.71,-12.63 24.4,-17.78 7.2,-3.65 11.52,-12.32 19.86,-13.6 11.13,9.41 24.9,15.1 38.69,19.39 l 0.34,0.95 c -14.79,-2.29 -28.04,-10.2 -41.16,-16.94 -4.98,2.84 -9.86,5.99 -14.16,9.8 -5.29,5.62 -13.11,7.89 -18.14,13.82 -6.34,4.95 -10.54,12.88 -17.68,16.46 0.74,-14.52 15.37,-23.9 18.41,-37.79 0.34,-12.7 0.87,-26.4 -8.73,-36.26 -11.19,0.47 -18.62,10.58 -27.61,16.09 z"
       id="path80" /></g><g
     id="#90638eff"
     transform="translate(0,-0.98577329)"><path
       fill="#90638e"
       opacity="1"
       d="m 24.12,280.16 c 11.53,-6.33 22.79,-14.79 35.85,-17.3 -2.24,6.28 -7.18,10.77 -11.61,15.49 -6.44,9.48 -14.73,18.77 -23.23,25.61 -4.04,-4.56 -0.43,-13.51 -2.11,-19.93 -0.11,-1.39 0.64,-2.62 1.1,-3.87 z"
       id="path81" /></g><g
     id="#92628fff"
     transform="translate(0,-0.98577329)"><path
       fill="#92628f"
       opacity="1"
       d="m 393.2,269.02 c 2.25,-0.06 2.55,2.75 3.7,4.18 0.2,9.35 0.14,18.72 -0.15,28.07 -1.29,-4.06 -1.6,-8.35 -2.9,-12.39 -3.94,3.16 -4.86,8.56 -7.26,12.79 -11.86,12.53 -20.87,27.45 -33.4,39.42 -6.41,2.59 -10.59,8.34 -16.93,11.22 -6.41,9.41 -18.02,12.03 -27.22,17.71 -10.78,6.12 -22.22,12.33 -34.81,13.69 -3.61,1.31 -6.88,4.83 -10.8,4.7 -4.16,-3.62 -7.78,2.84 -12.33,1.75 -2.63,0.84 -6.9,-0.13 -8.13,2.72 11.05,2.34 22.99,1.78 34.3,3.85 -48.5,0.48 -97.01,0.36 -145.51,0.08 11.57,-3.8 26.14,2.36 36.36,-4.56 -10.14,-2.49 -19.69,-7.32 -30,-8.46 -7.84,-3.32 -15.23,-8.41 -23.83,-9.07 -2.28,-3.53 -4.31,-7.08 -8.89,-7.03 -2.29,-5.56 -8.98,-4.69 -12.11,-9.23 -11.7,-2.76 -15.51,16.13 -27.04,15.44 -3.37,-8.73 -1.11,-19.55 2.19,-28.41 3.89,-7.09 -5.14,-8.73 -6.95,-14.08 -1.57,-5.08 -7.36,-6.84 -9.61,-11.29 -0.75,-4.05 -5.22,-6.42 -8.81,-4.06 -6.28,3.71 -15.15,9.09 -13.63,17.62 -3.81,7.23 -2.04,15.68 -2.66,23.56 -1.34,-6.24 -2.77,-12.53 -2.52,-18.95 -1.05,-11.53 8.54,-18.09 16.61,-24.25 5.58,-2.01 8.95,-8.01 14.96,-9.06 6.9,5.6 11.04,13.65 18.16,19.01 2.99,1.95 5.24,5.52 2.9,8.9 -3.87,11.07 -14.74,24.8 -6.75,36.02 9.54,-4.19 14.64,-13.98 21.83,-20.94 2.28,-1.52 5.61,-4.54 8.21,-2.1 3.35,3.91 8.99,4.79 11.77,9.21 13.32,5.07 24.5,16.37 39.6,16.49 13.89,5.17 28.93,6.97 43.28,10.75 4.17,-1.49 8.63,-1.45 12.81,0.04 15.34,1.85 30.97,-1.79 45.69,-4.79 9.89,2.51 16.6,-5.31 25.65,-6.69 41.55,-13.41 78.05,-41.43 101.94,-77.97 3.67,-8.17 7.21,-16.44 12.28,-23.89 z"
       id="path82" /></g><g
     id="#df9fd1ff"
     transform="translate(0,-0.98577329)"><path
       fill="#df9fd1"
       opacity="1"
       d="m 108.48,271.58 c 0.95,1.04 1.9,2.08 2.67,3.27 -0.09,10.75 -0.37,21.5 -0.07,32.24 7.44,-0.46 11.01,-7.89 15.92,-12.44 1.69,1.36 3.46,2.63 5.07,4.09 -11.3,3.56 -18.07,17.92 -31.08,19.37 2.84,-7.74 6.51,-15.62 6.79,-23.95 -4.33,-7.2 2.29,-14.88 0.7,-22.58 z"
       id="path83" /></g><g
     id="#e49dd5ff"
     transform="translate(0,-0.98577329)"><path
       fill="#e49dd5"
       opacity="1"
       d="m 269.35,283.38 c 4.37,-0.87 0.62,4.54 0.51,6.66 -20.8,23.96 -59.42,25.47 -85.8,10 -3.05,-3.77 -8.59,-5.2 -10.18,-10.12 13.86,3.98 28.35,2.85 42.45,5.8 17.79,-3.08 36.32,-4.63 53.02,-12.34 z"
       id="path84" /></g><g
     id="#8b5d89ff"
     transform="translate(0,-0.98577329)"><path
       fill="#8b5d89"
       opacity="1"
       d="m 386.59,301.67 c 2.4,-4.23 3.32,-9.63 7.26,-12.79 1.3,4.04 1.61,8.33 2.9,12.39 0.23,5.64 0.17,11.29 0.1,16.95 -1.33,-2.59 -2.52,-12.01 -5.75,-6.08 -3.26,8.69 -13.04,12.51 -15.53,21.5 -0.98,4.43 -6.74,4.55 -8.36,8.52 -2.58,6.63 -11.4,6.42 -15.32,11.78 -5.22,7.73 -14.21,11.31 -21.51,16.43 -4.69,7 -13.66,6.02 -19.37,11.65 -6.72,4.32 -18.18,3.51 -21.93,10.76 7.32,3.3 15.72,0.85 23.19,3.96 -11.66,0.19 -23.35,0.67 -35,-0.01 -11.31,-2.07 -23.25,-1.51 -34.3,-3.85 1.23,-2.85 5.5,-1.88 8.13,-2.72 4.55,1.09 8.17,-5.37 12.33,-1.75 3.92,0.13 7.19,-3.39 10.8,-4.7 12.59,-1.36 24.03,-7.57 34.81,-13.69 9.2,-5.68 20.81,-8.3 27.22,-17.71 6.34,-2.88 10.52,-8.63 16.93,-11.22 12.53,-11.97 21.54,-26.89 33.4,-39.42 z"
       id="path85" /></g><g
     id="#cfc9d0ff"
     transform="translate(0,-0.98577329)"><path
       fill="#cfc9d0"
       opacity="1"
       d="m 0,289.43 c 1.87,4.17 0.73,8.92 1.28,13.33 0.43,19.88 -2.93,40.41 3.1,59.72 9.17,30.92 39.29,54.23 71.59,55.53 90.02,-0.01 180.04,-0.03 270.07,0.01 17.91,-3.29 36.47,-9.49 48.38,-24.18 8.65,-8.73 15.97,-19.04 19.43,-30.95 0.07,2.09 0.22,4.19 0.29,6.3 -11.23,26.14 -36.55,46.63 -65.15,49.73 -93.34,0.18 -186.67,0.04 -280,0.07 C 41.44,415.8 17.99,396.68 5.6,372.39 1.86,368.14 3.9,361.55 0,357.43 Z"
       id="path86" /></g><g
     id="#845984ff"
     transform="translate(0,-0.98577329)"><path
       fill="#845984"
       opacity="1"
       d="m 391.1,312.14 c 3.23,-5.93 4.42,3.49 5.75,6.08 1.25,19.24 -1.13,39.98 -12.67,56.05 -0.7,-7.99 8.68,-12.45 7.69,-20.28 -1.24,-8.24 5.69,-15.96 1.89,-24.05 -10.07,6.41 -15.65,17.4 -23.8,25.94 -8.12,1.7 -9.47,12.14 -17.75,13.3 -3.07,5.36 -9.43,9.31 -15.24,11.84 -4.51,4.51 -10.63,7.29 -16.6,9.44 -1.45,0.06 -2.05,2.14 -0.7,2.78 11.94,2.64 24.4,0.55 36.57,-0.07 -14.2,4.67 -29.15,4.38 -43.97,3.57 -7.47,-3.11 -15.87,-0.66 -23.19,-3.96 3.75,-7.25 15.21,-6.44 21.93,-10.76 5.71,-5.63 14.68,-4.65 19.37,-11.65 7.3,-5.12 16.29,-8.7 21.51,-16.43 3.92,-5.36 12.74,-5.15 15.32,-11.78 1.62,-3.97 7.38,-4.09 8.36,-8.52 2.49,-8.99 12.27,-12.81 15.53,-21.5 z"
       id="path87" /></g><g
     id="#e4c9deff"
     transform="translate(0,-0.98577329)"><path
       fill="#e4c9de"
       opacity="1"
       d="m 172.81,320.05 c 12.11,1.78 24.09,4.59 36.42,4.78 -12.18,0.78 -24.24,-1.25 -36.08,-3.83 z"
       id="path88" /></g><g
     id="#e5c8deff"
     transform="translate(0,-0.98577329)"><path
       fill="#e5c8de"
       opacity="1"
       d="m 214.71,324.74 c 11.53,-1.08 23.02,-2.7 34.41,-4.65 l -0.18,1.02 c -11.23,2.49 -22.61,5.12 -34.23,3.63 z"
       id="path89" /></g><g
     id="#7b547eff"
     transform="translate(0,-0.98577329)"><path
       fill="#7b547e"
       opacity="1"
       d="m 369.96,355.88 c 8.15,-8.54 13.73,-19.53 23.8,-25.94 3.8,8.09 -3.13,15.81 -1.89,24.05 0.99,7.83 -8.39,12.29 -7.69,20.28 -3.56,4.27 -7.33,8.84 -12.19,11.65 -5.09,2.73 -9.79,6.65 -15.75,7.25 -12.17,0.62 -24.63,2.71 -36.57,0.07 -1.35,-0.64 -0.75,-2.72 0.7,-2.78 5.97,-2.15 12.09,-4.93 16.6,-9.44 5.81,-2.53 12.17,-6.48 15.24,-11.84 8.28,-1.16 9.63,-11.6 17.75,-13.3 z"
       id="path91" /></g><g
     id="#7c557fff"
     transform="translate(0,-0.98577329)"><path
       fill="#7c557f"
       opacity="1"
       d="m 31.78,364.21 c -7.95,-8.64 -2.82,-23.17 4.24,-30.18 3.36,2.09 6.6,5.2 10.86,6.1 1.93,6.94 9.58,9.85 11.78,17.12 3.11,6.97 -0.08,15.19 2.04,22.09 8.47,3.35 14.21,-8.17 22.98,-7.26 5.41,11.79 20.65,11.08 28.35,20.56 -7.28,3.36 -15.5,2.76 -23.24,4.21 -18.2,0.47 -37.63,-5.61 -50.11,-19.46 -2.17,-4.46 -3.87,-9.21 -6.9,-13.18 z"
       id="path92" /></g><g
     id="#99869bff"
     transform="translate(0,-0.98577329)" /><g
     id="#62436dff"
     transform="translate(0,-0.98577329)" /><g
     id="#60416cff"
     transform="translate(0,-0.98577329)" /><g
     id="#b5a5b5ff"
     transform="matrix(1.0265146,0,0,1.0265146,-11.62461,-0.05383529)"
     style="fill:#00ff00;fill-opacity:1"><g
       style="fill:#00ff00;fill-opacity:1"
       id="g94"
       transform="matrix(8.6669233,0,0,8.6669233,239.08351,-43.815018)" /></g></svg>
